<?xml version="1.0" encoding="utf-8"?>
<!-- Generator: Adobe Illustrator 25.1.0, SVG Export Plug-In . SVG Version: 6.00 Build 0)  -->
<svg version="1.1" xmlns="http://www.w3.org/2000/svg" x="0px" y="0px"
     viewBox="0 0 328.8 51" style="enable-background:new 0 0 328.8 51;" xml:space="preserve">
<style type="text/css">
	.st0{fill-rule:evenodd;clip-rule:evenodd;fill:#008D84;}
	.st1{fill:#008D84;}
</style>
    <g id="Ebene_1">
</g>
    <g id="Feinwerkbau">
	<g id="Feinwerkbau_1_">
		<g id="Feinwerkbau_Schiftzug">
			<path id="u" class="st0"
                  d="M245.1,21.3v8.2c0,0.2,0,0.7,0.8,0.7H258v-8.9h4.2l0.1,11.2h-19c-1.3,0-2.2-1.2-2.2-2.5v-8.8H245.1z"
            />
            <path id="a" class="st0" d="M218.4,26.2h14.2v-2.1h-16.2v-2.8h17.8c2.5,0,2.5,1.1,2.5,2.8v8.5h-18.2c-1.3,0-2.3-1-2.3-2.3v-1.7
				C216,27.2,217.1,26.2,218.4,26.2z M220.5,28.5v1.7h12.1v-1.7H220.5z"/>
            <path id="b" class="st0" d="M209.2,21.3c1.3,0,2.3,1,2.3,2.3v6.6c0,1.3-1,2.3-2.3,2.3h-18V16.8h4.1v4.5H209.2z M195.3,24v6.2
				h11.9V24H195.3z"/>
            <polygon id="k" class="st0" points="168.9,16.8 173,16.8 173,26.6 181.6,21.3 189,21.3 180.4,26.6 189,32.5 181.6,32.5 173,27.3
				173,32.5 168.9,32.5 			"/>
            <path id="r" class="st0" d="M161.8,21.3c2.2,0,2.6,1.7,2.6,2.8v2.1h-4.2v-2.1h-8.3v8.4h-4.1V21.3H161.8z"/>
            <path id="e2" class="st0" d="M125.8,21.3h15.1c1.3,0,2.3,1,2.3,2.3v4.9h-15.6v1.8h15.6v2.3h-17.4c-1.3,0-2.3-1-2.3-2.3v0v-6.6
				C123.4,22.3,124.5,21.3,125.8,21.3L125.8,21.3z M127.5,24.1v2.1h11.6v-2.1H127.5z"/>
            <polygon id="w" class="st0" points="89.5,21.3 94.2,21.3 99.1,29.5 103.9,21.3 108.9,21.3 113.7,29.5 118.6,21.3 121.2,21.3
				115,32.5 110.3,32.5 105.2,24.1 100.4,32.5 95.7,32.5 			"/>
            <path id="n" class="st0" d="M84.2,21.3c1.8,0,3.1,1.7,3.1,2.8v8.4H83v-8.4H72v8.4h-4.1V21.3H84.2z"/>
            <rect id="I_Punkt" x="59.5" y="17.5" class="st1" width="3.8" height="2.3"/>
            <rect id="I" x="59.5" y="21.8" class="st1" width="3.8" height="10.7"/>
            <path id="e1" class="st0" d="M37.6,21.3h15.1c1.3,0,2.3,1,2.3,2.3v4.9H39.4v1.8H55v2.3H37.6c-1.3,0-2.3-1-2.3-2.3v-6.6
				C35.3,22.3,36.3,21.3,37.6,21.3z M39.4,24.1v2.1h11.6v-2.1H39.4z"/>
            <polygon id="F" class="st0" points="14.5,16.8 14.5,32.5 18.8,32.5 18.8,24.1 30.8,24.1 30.8,21.3 18.8,21.3 18.8,19.2
				35.3,19.2 35.3,16.8 			"/>
		</g>
        <g id="GmbH">
			<path class="st1" d="M275.4,32c-1,0.4-2.1,0.6-3.2,0.6c-1.6,0-2.9-0.4-3.9-1.5c-0.9-0.9-1.5-2.4-1.5-4.1c0-3.3,2.2-5.7,5.7-5.7
				c0.9,0,1.8,0.1,2.6,0.5l-0.3,1.2c-0.7-0.3-1.5-0.5-2.3-0.5c-2.6,0-4.2,1.7-4.2,4.4s1.6,4.5,4.1,4.5c0.6,0,1.2-0.1,1.8-0.3v-3.3
				h-2.1v-1.1h3.5V32z"/>
            <path class="st1" d="M280,26.9c0-0.8,0-1.4-0.1-2h1.2l0.1,1.2h0c0.5-0.9,1.4-1.4,2.4-1.4c1,0,1.8,0.6,2.1,1.5h0
				c0.2-0.4,0.5-0.7,0.8-1c0.5-0.4,1.1-0.6,1.7-0.5c1,0,2.5,0.7,2.5,3.3v4.4h-1.3v-4.3c0-1.5-0.5-2.3-1.6-2.3
				c-0.8,0-1.4,0.5-1.6,1.2c-0.1,0.2-0.1,0.4-0.1,0.7v4.7h-1.3v-4.5c0-1.2-0.5-2.1-1.6-2.1c-0.8,0.1-1.5,0.6-1.7,1.4
				c-0.1,0.2-0.1,0.4-0.1,0.7v4.6H280L280,26.9z"/>
            <path class="st1" d="M295.2,32.4c0-0.5,0.1-1.3,0.1-1.9v-9.1h1.3v4.7h0c0.5-0.9,1.5-1.4,2.6-1.4c1.9,0,3.2,1.6,3.2,3.9
				c0,2.7-1.7,4-3.4,4c-1,0.1-2-0.5-2.5-1.4h0l-0.1,1.2H295.2z M296.6,29.4c0,0.2,0,0.3,0.1,0.5c0.2,0.9,1.1,1.6,2.1,1.6
				c1.4,0,2.3-1.2,2.3-2.9c0-1.5-0.8-2.8-2.2-2.8c-1,0-1.9,0.7-2.1,1.7c0,0.2-0.1,0.4-0.1,0.6V29.4z"/>
            <path class="st1" d="M308.3,21.4V26h5.1v-4.6h1.4v11.1h-1.4v-5.2h-5.1v5.2H307V21.4H308.3z"/>
		</g>
	</g>
</g>
</svg>
