<?xml version="1.0" encoding="utf-8"?>
<!-- Generator: Adobe Illustrator 25.1.0, SVG Export Plug-In . SVG Version: 6.00 Build 0)  -->
<svg version="1.1" xmlns="http://www.w3.org/2000/svg" x="0px" y="0px"
     viewBox="0 0 328.8 51" style="enable-background:new 0 0 328.8 51;" xml:space="preserve">
<style type="text/css">
	.st0{fill-rule:evenodd;clip-rule:evenodd;fill:#3457D5;}
	.st1{fill:#3457D5;}
</style>
    <g id="Ebene_1">
</g>
    <g id="Koch">
	<g id="Markus_Koch">
		<path class="st0" d="M55.3,0h220.3v51H55.3V0z M58,2.7h214.9v45.7H58V2.7z"/>
        <path class="st0" d="M105.9,22l0.4-2.7l-3.5,0.7c-6.5,7.8-18.3,17.5-30,17.6C87.3,41.1,99.7,28.3,105.9,22L105.9,22z M85.4,29
			c5.6-4.2,10.9-8.9,15.6-14.1l0.8-4.3L96,12.4c-4.3,5.4-9.2,10.2-14.8,14.4c-10.1,7.4-16.8,7.6-15,0.6c1-3.9,4.4-9.3,9-14.6
			l-0.9-0.6c-5.2,6.5-9,12.8-10.3,17.6C61.6,39.8,71.1,39.5,85.4,29L85.4,29z M76.7,28.9c0.4-4.3,3.2-8.4,5.4-11l-0.7-0.5
			c-2.9,3.8-5.5,8.7-6.1,12.3C75.7,29.4,76.2,29.1,76.7,28.9z M100.4,35.1c2.9-2,5.6-4.3,8-6.8l0.4-2.1l-2.9,0.8
			c-2.2,2.6-4.8,5-7.6,6.9c-6,4.1-11.6,6-17.6,5.9C86.6,41.2,92.9,40.1,100.4,35.1z M72.3,31c-1.4-5.6,3.4-12.1,6.4-15.6L78,14.9
			c-4.1,5.4-8.2,13.4-7.5,16.7C71.2,31.4,71.8,31.3,72.3,31L72.3,31z"/>
        <path class="st1" d="M114.2,24.7h2v-13h0l4.9,13h1.8l4.9-13h0.1v13h2V9.1h-2.8l-4.9,13.1L117,9.1h-2.8L114.2,24.7L114.2,24.7z
			 M208.5,24.7h2.1v-5.5l2.6-2.4l5.6,7.9h2.6l-6.8-9.3l6.6-6.3h-2.7l-7.9,7.8V9.1h-2.1V24.7z M130.4,24.7h2.1l1.7-4.7h6.6l1.7,4.7
			h2.3l-6.1-15.6h-2.3L130.4,24.7L130.4,24.7z M137.6,11L137.6,11l2.7,7.3H135L137.6,11L137.6,11z M147.6,16.3v-5.4h5.2
			c1.9,0,2.8,1.1,2.8,2.7c0,2.3-1.7,2.8-3.6,2.8H147.6z M145.6,24.7h2.1V18h5.1c2,0,2.4,1.3,2.6,2.8c0.3,1.5,0,3.2,0.6,3.8h2.3
			c-0.9-1.1-0.8-2.8-0.9-4.3c-0.1-1.5-0.5-2.9-2.3-3.2v0c1.9-0.5,2.7-2.1,2.7-4c0-2.5-1.8-4.1-4.7-4.1h-7.3L145.6,24.7L145.6,24.7z
			 M159.7,24.7h2.1v-5.5l2.6-2.4l5.6,7.9h2.6l-6.8-9.3l6.6-6.3h-2.7l-7.9,7.8V9.1h-2.1L159.7,24.7L159.7,24.7z M185.8,9.1h-2.1V19
			c0,2.8-1.4,4.3-4.1,4.3c-2.8,0-4.3-1.5-4.3-4.3V9.1h-2.1V19c0,4.1,2.4,6,6.4,6c3.9,0,6.1-2.1,6.1-6L185.8,9.1L185.8,9.1z
			 M199.3,13.6c-0.1-3.4-2.6-4.9-5.7-4.9c-2.8,0-5.7,1.4-5.7,4.6c0,2.9,2.5,3.6,5,4.1c2.5,0.5,5,0.9,5,3.1c0,2.3-2.1,2.8-4,2.8
			c-2.4,0-4.5-1.1-4.5-3.8h-2c0,3.8,2.9,5.5,6.4,5.5c2.8,0,6.1-1.3,6.1-4.6c0-3.1-2.5-3.9-5-4.5c-2.5-0.6-5-0.9-5-2.8
			c0-2,1.7-2.7,3.5-2.7c2.1,0,3.6,1,3.9,3.2L199.3,13.6z M221.3,16.9c0,4.2,2.5,8.2,7.5,8.2s7.5-3.9,7.5-8.2s-2.5-8.2-7.5-8.2
			S221.3,12.6,221.3,16.9z M223.4,16.9c0-3.1,1.6-6.4,5.4-6.4c3.8,0,5.4,3.3,5.4,6.4s-1.6,6.4-5.4,6.4C225,23.3,223.4,20,223.4,16.9
			L223.4,16.9z M251,13.8c-0.5-3.3-3.2-5.1-6.4-5.1c-4.8,0-7.4,3.7-7.4,8.2s2.4,8.1,7.2,8.1c3.9,0,6.4-2.4,6.7-6.2h-2.1
			c-0.2,2.6-1.8,4.5-4.5,4.5c-3.7,0-5.3-3-5.3-6.5c0-3.3,1.6-6.3,5.3-6.3c2.2,0,3.9,1.1,4.4,3.3H251z M252.9,24.7h2.1v-7.1h8.2v7.1
			h2.1V9.1h-2.1v6.7h-8.2V9.1h-2.1L252.9,24.7L252.9,24.7z"/>
        <path class="st1" d="M114.2,41h1.1v-9.5h0L119,41h1l3.8-9.5h0V41h1V30h-1.5l-3.8,9.6l-3.8-9.6h-1.5V41L114.2,41z M129.1,41h7.7
			v-0.9h-6.6v-4.3h6.1v-0.9h-6.1v-4h6.5V30h-7.6V41L129.1,41z M140.4,41h1v-9.3h0l6.4,9.3h1.2V30h-1v9.3h0l-6.4-9.3h-1.2V41
			L140.4,41z M152.2,30.9h3.8V41h1V30.9h3.8V30h-8.7C152.2,30,152.2,30.9,152.2,30.9z M166.8,31.1l2.1,5.6h-4.3L166.8,31.1
			L166.8,31.1z M161.8,41h1.1l1.3-3.4h5l1.3,3.4h1.1l-4.3-11h-1.2L161.8,41L161.8,41z M174.9,41h7.2v-0.9h-6.2V30h-1L174.9,41
			L174.9,41z M182.7,30.9h3.8V41h1V30.9h3.8V30h-8.7L182.7,30.9L182.7,30.9z M195.6,30.9h3.9c1.6,0,2.4,0.8,2.4,2.2
			c0,1.4-1.1,2.1-2.4,2.1h-3.9V30.9L195.6,30.9z M194.6,41h1.1v-4.9h3.9c2-0.1,2.1,1.6,2.2,3.2c0,0.5,0,1.3,0.3,1.7h1.2
			c-0.5-0.5-0.5-2.1-0.5-2.8c-0.1-1.3-0.5-2.3-1.9-2.5v0c1.4-0.3,2.1-1.4,2.1-2.8c0-2-1.5-2.9-3.3-2.9h-5L194.6,41L194.6,41z
			 M210.7,31.1l2.1,5.6h-4.3L210.7,31.1L210.7,31.1z M205.7,41h1.1l1.3-3.4h5l1.3,3.4h1.1l-4.3-11h-1.2L205.7,41L205.7,41z
			 M218.9,41h1.1V30h-1.1V41z M224.3,41h1.1v-9.3h0l6.4,9.3h1.2V30h-1v9.3h0l-6.4-9.3h-1.2L224.3,41L224.3,41z M237.4,41h1V30h-1.1
			L237.4,41L237.4,41z M242.9,41h1v-9.3h0l6.4,9.3h1.2V30h-1.1v9.3h0L244,30h-1.2L242.9,41L242.9,41z M265.2,35.4h-4.7v0.9h3.7
			c0,2.3-1.4,4-3.8,4c-2.9,0-4.1-2.4-4.1-4.8s1.2-4.8,4.1-4.8c2.1,0,3.4,1.5,3.5,2.8h1c-0.4-2.4-2.3-3.6-4.6-3.6
			c-3.5,0-5.2,2.7-5.2,5.7s1.7,5.7,5.2,5.7c1.6,0,3.1-0.7,3.8-2.2h0l0.1,2h0.8V35.4L265.2,35.4z"/>
	</g>
</g>
</svg>
