<?xml version="1.0" encoding="utf-8"?>
<!-- Generator: Adobe Illustrator 25.1.0, SVG Export Plug-In . SVG Version: 6.00 Build 0)  -->
<svg version="1.1" xmlns="http://www.w3.org/2000/svg" x="0px" y="0px"
     viewBox="0 0 328.8 51" style="enable-background:new 0 0 328.8 51;" xml:space="preserve">
<style type="text/css">
	.st0{fill-rule:evenodd;clip-rule:evenodd;fill:#1A1A1A;}
	.st1{fill-rule:evenodd;clip-rule:evenodd;fill:#FFFFFF;}
	.st2{fill-rule:evenodd;clip-rule:evenodd;fill:#3DAE2B;}
	.st3{fill-rule:evenodd;clip-rule:evenodd;fill:url(#SVGID_1_);}
	.st4{fill:#FFFFFF;}
</style>
    <g id="Ebene_1">
</g>
    <g id="Disag_2_">
	<g id="Disag_1_">
		<polygon class="st0" points="248.8,0.9 70.7,0.9 70.7,50.1 248.8,50.1 248.8,0.9 		"/>
        <path class="st1" d="M105.1,27.6h4.4c2.4,0,4-0.3,5.1-1c0.9-0.8,1.5-2,1.5-3.7c0-1.5-0.4-2.7-1.2-3.4c-0.9-0.8-2.1-1.2-3.7-1.2h-6
			V27.6z M101.6,30.5V15.7h9.5c2.7,0,4.8,0.6,6.2,1.9c1.4,1.3,2.1,3.1,2.1,5.4c0,1.3-0.2,2.5-0.8,3.7c-0.5,1.1-1.4,2-2.4,2.6
			c-0.7,0.4-1.6,0.7-2.4,0.9c-1.2,0.2-2.5,0.3-3.7,0.3H101.6z"/>
        <polygon class="st1" points="125.9,30.5 125.9,15.7 129.3,15.7 129.3,30.5 125.9,30.5 		"/>
        <path class="st1" d="M149.6,18.3h-9.7v3.2h9.2c1.5,0,2.5,0.3,3,0.7c0.5,0.5,0.7,1.5,0.7,2.7V27c0,1.4-0.2,2.2-0.7,2.7
			s-1.5,0.8-3,0.8H140c-1.5,0-2.4-0.3-2.9-0.8s-0.8-1.4-0.8-2.8v-0.4l3.1,0v1.1h10.4v-3.3h-9.2c-1.5,0-2.4-0.3-2.9-0.7
			c-0.5-0.5-0.8-1.5-0.8-2.8v-1.6c0-1.3,0.3-2.2,0.8-2.7c0.5-0.4,1.5-0.7,2.9-0.7h8.4c1.4,0,2.3,0.2,2.8,0.7
			c0.5,0.4,0.8,1.3,0.8,2.5v0.3l-3,0.7L149.6,18.3L149.6,18.3z"/>
        <path class="st1" d="M163.2,24.6h6.4l-3.2-6L163.2,24.6L163.2,24.6z M156.6,30.5l8.3-14.7h3.3l8.4,14.7h-3.9l-1.7-3.3h-9.3
			l-1.7,3.3L156.6,30.5z"/>
        <path class="st1" d="M194.8,18.3H184v9.3h10.7v-3.3h-5.6v-2.5h8.9V27c0,1.4-0.3,2.3-0.8,2.7c-0.4,0.5-1.5,0.8-2.8,0.8h-10.2
			c-1.5,0-2.4-0.3-2.9-0.8s-0.8-1.4-0.8-2.7v-7.8c0-1.3,0.3-2.2,0.8-2.7c0.5-0.4,1.5-0.7,2.9-0.7h10.2c1.4,0,2.3,0.3,2.8,0.7
			c0.5,0.5,0.8,1.4,0.8,2.7v0.3l-3.3,0.6V18.3z"/>
        <path class="st2"
              d="M225.6,32.3h-7.5V19c1.8,0,7.4-0.2,8.8,0.2c1.4,0.4,2.2,0.7,3.3,1.9c3.7,3.7,1.7,10.4-4,11.1L225.6,32.3z"/>
        <path class="st2" d="M225.6,38.6l1.3-0.1c3.1-0.4,6.7-2.4,8.6-4.8c4.5-5.6,3.6-13.8-2-18.3c-1.5-1.2-3.3-2.1-5.2-2.5
			c-2.5-0.6-7.4-0.3-10.1-0.3v5.2h7.5c3.4,0,6.7,2.7,7.4,6.2c0.9,4.5-2.3,8.8-6.6,9.4h-8.3v5.1L225.6,38.6L225.6,38.6z"/>
        <path class="st2" d="M225.6,45c2.2-0.1,4.4-0.6,6.5-1.4c14.7-5.9,16.6-25.5,4-34.2C230.3,5.4,224.8,6,218.1,6v5.6
			c5.8,0,11.7-0.8,16.4,3.3c3.1,2.7,4.7,6,5,10.1c0.5,7.9-6,14.6-13.8,14.8L75.8,39.7V45H225.6z"/>

        <radialGradient id="SVGID_1_" cx="236.2624" cy="435.3972" r="36.5702"
                        gradientTransform="matrix(0 -1.24 -0.65 0 532.549 341.1921)" gradientUnits="userSpaceOnUse">
			<stop offset="0" style="stop-color:#00A7AA"/>
            <stop offset="0.37" style="stop-color:#008FA0"/>
            <stop offset="0.73" style="stop-color:#007E99"/>
            <stop offset="1" style="stop-color:#007897"/>
		</radialGradient>
        <polygon class="st3" points="252.5,1 252.5,50.2 268.8,50.2 268.8,1 252.5,1 		"/>
        <path class="st4" d="M257.1,38.8c0.5,0,1,0.1,1.9,0.1h4c1.6,0,2.6,0.3,3.2,1c0.6,0.7,0.9,1.6,0.8,2.5c0,0.8-0.2,1.6-0.6,2.3
			l-1-0.3c0.4-0.6,0.6-1.3,0.5-2c0-1.3-0.7-2.2-2.4-2.2h-0.8v0c0.8,0.5,1.2,1.3,1.2,2.2c0,1.7-1.5,2.9-3.4,2.9
			c-2.3,0-3.7-1.5-3.7-3.1c-0.1-0.9,0.4-1.7,1.2-2.2v0l-1-0.1L257.1,38.8z M259.8,40.1c-0.2,0-0.4,0-0.6,0.1
			c-0.8,0.2-1.3,0.9-1.3,1.8c0,1.2,1,2.1,2.6,2.1c1.4,0,2.5-0.7,2.5-2c0-0.8-0.5-1.5-1.3-1.7c-0.2-0.1-0.4-0.1-0.7-0.1L259.8,40.1z"
        />
        <path class="st4" d="M260.8,36c1.7,0,2.4-1.1,2.4-2.4c0-0.7-0.1-1.3-0.3-1.9l0.9-0.2c0.3,0.7,0.5,1.5,0.4,2.3
			c0,2.1-1.4,3.4-3.5,3.4s-3.7-1.2-3.7-3.2c0-2.3,2-2.9,3.3-2.9c0.2,0,0.4,0,0.6,0L260.8,36z M259.9,32.4c-0.8,0-2,0.3-2,1.7
			c0,1.3,1.2,1.8,2,1.9V32.4z"/>
        <path class="st4" d="M258.9,29.5c-0.7,0-1.3,0-1.9,0.1v-1.1l1.1-0.1v0c-0.8-0.5-1.3-1.3-1.3-2.3c0-1,0.6-2.4,2.9-2.4h4.1v1.3h-4
			c-1.1,0-2,0.4-2,1.6c0,1,0.9,1.8,1.9,1.8h4.2v1.3L258.9,29.5z"/>
        <path class="st4" d="M264,17.7l-0.9,0.1v0c0.7,0.5,1.1,1.3,1,2.1c0.1,1.1-0.7,2-1.8,2.1c-0.1,0-0.1,0-0.2,0
			c-1.7,0-2.6-1.5-2.6-4.2h-0.1c-0.6,0-1.6,0.2-1.6,1.6c0,0.6,0.2,1.3,0.5,1.8l-0.8,0.3c-0.4-0.7-0.6-1.5-0.6-2.3
			c0-2.1,1.4-2.6,2.8-2.6h2.6c0.6,0,1.1,0,1.7-0.1V17.7z M260.5,17.9c0,1.4,0.2,2.9,1.6,2.9c0.6,0.1,1.1-0.4,1.2-1
			c0-0.1,0-0.1,0-0.2c0-0.7-0.5-1.4-1.2-1.7c-0.1,0-0.3-0.1-0.4-0.1H260.5z"/>
        <path class="st4" d="M262.1,8.8c0.7,0,1.3,0,1.9-0.1v1.1l-1.1,0.1v0c0.8,0.5,1.3,1.3,1.3,2.3c0,1.1-0.6,2.4-3,2.4h-4v-1.3h3.8
			c1.3,0,2.2-0.4,2.2-1.5c0-0.7-0.5-1.4-1.1-1.7c-0.2-0.1-0.4-0.1-0.6-0.1h-4.2V8.8H262.1z"/>
        <path class="st4" d="M263.2,7c-0.5,0-0.9-0.3-0.9-0.8c0,0,0-0.1,0-0.1c0-0.5,0.5-0.9,1-0.8c0.5,0,0.8,0.4,0.8,0.8
			C264.1,6.6,263.8,7,263.2,7C263.3,7,263.3,7,263.2,7z"/>
	</g>
</g>
</svg>
