<?xml version="1.0" encoding="utf-8"?>
<!-- Generator: Adobe Illustrator 25.1.0, SVG Export Plug-In . SVG Version: 6.00 Build 0)  -->
<svg version="1.1" id="Ebene_1" xmlns="http://www.w3.org/2000/svg" x="0px"
     y="0px"
     viewBox="0 0 328.8 51" style="enable-background:new 0 0 328.8 51;" xml:space="preserve">
<style type="text/css">
	.st0{fill:none;stroke:#000000;stroke-width:0.5;stroke-miterlimit:10;}
	.st1{fill:#30A7AF;}
	.st2{fill:#FFFFFF;}
	.st3{fill:#FFFDFD;}
</style>
    <g>
	<g>
		<path d="M198.7,20.5l1.1-0.1c0.1,0.4,0.2,0.8,0.4,1.1c0.2,0.3,0.5,0.5,0.9,0.7s0.8,0.3,1.3,0.3c0.4,0,0.8-0.1,1.2-0.2
			c0.3-0.1,0.6-0.3,0.8-0.5c0.2-0.2,0.2-0.5,0.2-0.8c0-0.3-0.1-0.5-0.2-0.7s-0.4-0.4-0.8-0.5c-0.2-0.1-0.8-0.2-1.6-0.4
			s-1.4-0.4-1.7-0.5c-0.4-0.2-0.7-0.5-0.9-0.8c-0.2-0.3-0.3-0.7-0.3-1.1c0-0.4,0.1-0.9,0.4-1.2c0.3-0.4,0.6-0.7,1.1-0.9
			c0.5-0.2,1-0.3,1.6-0.3c0.7,0,1.2,0.1,1.7,0.3c0.5,0.2,0.9,0.5,1.1,0.9c0.3,0.4,0.4,0.9,0.4,1.4l-1.1,0.1c-0.1-0.6-0.3-1-0.6-1.3
			c-0.3-0.3-0.9-0.4-1.5-0.4c-0.7,0-1.2,0.1-1.5,0.4c-0.3,0.3-0.5,0.6-0.5,0.9c0,0.3,0.1,0.6,0.3,0.8c0.2,0.2,0.8,0.4,1.8,0.6
			c0.9,0.2,1.6,0.4,1.9,0.6c0.5,0.2,0.9,0.5,1.1,0.9c0.2,0.4,0.4,0.8,0.4,1.2c0,0.5-0.1,0.9-0.4,1.3s-0.7,0.7-1.2,1
			c-0.5,0.2-1.1,0.3-1.7,0.3c-0.8,0-1.5-0.1-2-0.3c-0.5-0.2-1-0.6-1.3-1C198.8,21.6,198.7,21,198.7,20.5z"/>
        <path d="M210.3,23.3v-8.8h1.2v3.6h4.6v-3.6h1.2v8.8H216v-4.1h-4.6v4.1H210.3z"/>
        <path d="M221.7,19c0-1.5,0.4-2.6,1.2-3.4s1.8-1.2,3-1.2c0.8,0,1.5,0.2,2.2,0.6c0.7,0.4,1.1,0.9,1.5,1.6s0.5,1.5,0.5,2.4
			c0,0.9-0.2,1.7-0.5,2.4c-0.4,0.7-0.9,1.2-1.5,1.6c-0.7,0.4-1.4,0.5-2.1,0.5c-0.8,0-1.6-0.2-2.2-0.6c-0.7-0.4-1.1-0.9-1.5-1.6
			C221.9,20.5,221.7,19.8,221.7,19z M222.9,19c0,1.1,0.3,1.9,0.9,2.5c0.6,0.6,1.3,0.9,2.1,0.9c0.9,0,1.6-0.3,2.2-0.9
			c0.6-0.6,0.8-1.5,0.8-2.6c0-0.7-0.1-1.3-0.4-1.9c-0.2-0.5-0.6-0.9-1.1-1.2c-0.5-0.3-1-0.4-1.6-0.4c-0.8,0-1.5,0.3-2.1,0.8
			C223.2,16.8,222.9,17.7,222.9,19z"/>
        <path d="M234.3,19c0-1.5,0.4-2.6,1.2-3.4c0.8-0.8,1.8-1.2,3-1.2c0.8,0,1.5,0.2,2.2,0.6c0.7,0.4,1.1,0.9,1.5,1.6s0.5,1.5,0.5,2.4
			c0,0.9-0.2,1.7-0.5,2.4c-0.4,0.7-0.9,1.2-1.5,1.6c-0.7,0.4-1.4,0.5-2.1,0.5c-0.8,0-1.6-0.2-2.2-0.6c-0.7-0.4-1.1-0.9-1.5-1.6
			C234.4,20.5,234.3,19.8,234.3,19z M235.5,19c0,1.1,0.3,1.9,0.9,2.5c0.6,0.6,1.3,0.9,2.1,0.9c0.9,0,1.6-0.3,2.2-0.9
			c0.6-0.6,0.8-1.5,0.8-2.6c0-0.7-0.1-1.3-0.4-1.9c-0.2-0.5-0.6-0.9-1.1-1.2c-0.5-0.3-1-0.4-1.6-0.4c-0.8,0-1.5,0.3-2.1,0.8
			C235.8,16.8,235.5,17.7,235.5,19z"/>
        <path d="M249.4,23.3v-7.7h-2.9v-1h7v1h-2.9v7.7H249.4z"/>
        <path d="M257.9,23.3v-8.8h1.2v8.8H257.9z"/>
        <path d="M264.1,23.3v-8.8h1.2l4.6,6.9v-6.9h1.1v8.8h-1.2l-4.6-6.9v6.9H264.1z"/>
        <path d="M280,19.8v-1l3.7,0v3.3c-0.6,0.5-1.2,0.8-1.8,1c-0.6,0.2-1.2,0.3-1.9,0.3c-0.9,0-1.6-0.2-2.4-0.6
			c-0.7-0.4-1.2-0.9-1.6-1.6c-0.4-0.7-0.5-1.5-0.5-2.3c0-0.9,0.2-1.7,0.5-2.4c0.4-0.7,0.9-1.3,1.5-1.6s1.4-0.5,2.3-0.5
			c0.6,0,1.2,0.1,1.7,0.3c0.5,0.2,0.9,0.5,1.2,0.9c0.3,0.4,0.5,0.8,0.7,1.4l-1,0.3c-0.1-0.4-0.3-0.8-0.5-1.1
			c-0.2-0.3-0.5-0.5-0.8-0.6c-0.4-0.2-0.8-0.2-1.2-0.2c-0.5,0-1,0.1-1.4,0.2c-0.4,0.2-0.7,0.4-0.9,0.6c-0.2,0.3-0.4,0.6-0.6,0.9
			c-0.2,0.5-0.3,1.1-0.3,1.8c0,0.8,0.1,1.4,0.4,2c0.3,0.5,0.7,0.9,1.2,1.2s1.1,0.4,1.6,0.4c0.5,0,1-0.1,1.5-0.3s0.8-0.4,1.1-0.6
			v-1.6H280z"/>
        <path d="M198.7,33.7l1.1-0.1c0.1,0.4,0.2,0.8,0.4,1.1c0.2,0.3,0.5,0.5,0.9,0.7s0.8,0.3,1.3,0.3c0.4,0,0.8-0.1,1.2-0.2
			c0.3-0.1,0.6-0.3,0.8-0.5c0.2-0.2,0.2-0.5,0.2-0.8c0-0.3-0.1-0.5-0.2-0.7s-0.4-0.4-0.8-0.5c-0.2-0.1-0.8-0.2-1.6-0.4
			c-0.8-0.2-1.4-0.4-1.7-0.5c-0.4-0.2-0.7-0.5-0.9-0.8c-0.2-0.3-0.3-0.7-0.3-1.1c0-0.4,0.1-0.9,0.4-1.2c0.3-0.4,0.6-0.7,1.1-0.9
			c0.5-0.2,1-0.3,1.6-0.3c0.7,0,1.2,0.1,1.7,0.3c0.5,0.2,0.9,0.5,1.1,0.9c0.3,0.4,0.4,0.9,0.4,1.4l-1.1,0.1c-0.1-0.6-0.3-1-0.6-1.3
			c-0.3-0.3-0.9-0.4-1.5-0.4c-0.7,0-1.2,0.1-1.5,0.4c-0.3,0.3-0.5,0.6-0.5,0.9c0,0.3,0.1,0.6,0.3,0.8c0.2,0.2,0.8,0.4,1.8,0.6
			c0.9,0.2,1.6,0.4,1.9,0.6c0.5,0.2,0.9,0.5,1.1,0.9c0.2,0.4,0.4,0.8,0.4,1.2c0,0.5-0.1,0.9-0.4,1.3s-0.7,0.7-1.2,1
			c-0.5,0.2-1.1,0.3-1.7,0.3c-0.8,0-1.5-0.1-2-0.3c-0.5-0.2-1-0.6-1.3-1C198.8,34.8,198.7,34.3,198.7,33.7z"/>
        <path d="M207.2,36.6v-8.8h3.3c0.6,0,1,0,1.3,0.1c0.4,0.1,0.8,0.2,1.1,0.4c0.3,0.2,0.5,0.5,0.7,0.8c0.2,0.4,0.3,0.8,0.3,1.2
			c0,0.7-0.2,1.4-0.7,1.9s-1.3,0.8-2.6,0.8h-2.3v3.6H207.2z M208.4,32h2.3c0.8,0,1.3-0.1,1.6-0.4s0.5-0.7,0.5-1.2
			c0-0.4-0.1-0.7-0.3-0.9c-0.2-0.3-0.4-0.4-0.7-0.5c-0.2-0.1-0.6-0.1-1.1-0.1h-2.2V32z"/>
        <path d="M215.1,32.3c0-1.5,0.4-2.6,1.2-3.4c0.8-0.8,1.8-1.2,3-1.2c0.8,0,1.5,0.2,2.2,0.6c0.7,0.4,1.1,0.9,1.5,1.6s0.5,1.5,0.5,2.4
			c0,0.9-0.2,1.7-0.5,2.4c-0.4,0.7-0.9,1.2-1.5,1.6s-1.4,0.5-2.1,0.5c-0.8,0-1.6-0.2-2.2-0.6c-0.7-0.4-1.1-0.9-1.5-1.6
			S215.1,33.1,215.1,32.3z M216.3,32.3c0,1.1,0.3,1.9,0.9,2.5s1.3,0.9,2.1,0.9c0.9,0,1.6-0.3,2.2-0.9c0.6-0.6,0.8-1.5,0.8-2.6
			c0-0.7-0.1-1.3-0.4-1.9c-0.2-0.5-0.6-0.9-1.1-1.2c-0.5-0.3-1-0.4-1.6-0.4c-0.8,0-1.5,0.3-2.1,0.8C216.5,30,216.3,31,216.3,32.3z"
        />
        <path d="M225,36.6v-8.8h3.9c0.8,0,1.4,0.1,1.8,0.2c0.4,0.2,0.7,0.4,1,0.8c0.2,0.4,0.4,0.8,0.4,1.3c0,0.6-0.2,1.1-0.6,1.6
			c-0.4,0.4-1,0.7-1.9,0.8c0.3,0.1,0.5,0.3,0.7,0.4c0.3,0.3,0.7,0.7,1,1.2l1.5,2.4h-1.5l-1.2-1.8c-0.3-0.5-0.6-0.9-0.8-1.2
			c-0.2-0.3-0.4-0.5-0.6-0.6s-0.4-0.2-0.5-0.2c-0.1,0-0.3,0-0.6,0h-1.3v3.9H225z M226.1,31.7h2.5c0.5,0,0.9-0.1,1.2-0.2
			c0.3-0.1,0.5-0.3,0.7-0.5c0.2-0.2,0.2-0.5,0.2-0.8c0-0.4-0.2-0.8-0.5-1c-0.3-0.3-0.8-0.4-1.4-0.4h-2.8V31.7z"/>
        <path d="M235.8,36.6v-7.7h-2.9v-1h7v1H237v7.7H235.8z"/>
        <path d="M240.7,33.7l1.1-0.1c0.1,0.4,0.2,0.8,0.4,1.1c0.2,0.3,0.5,0.5,0.9,0.7s0.8,0.3,1.3,0.3c0.4,0,0.8-0.1,1.2-0.2
			s0.6-0.3,0.8-0.5c0.2-0.2,0.2-0.5,0.2-0.8c0-0.3-0.1-0.5-0.2-0.7c-0.2-0.2-0.4-0.4-0.8-0.5c-0.2-0.1-0.8-0.2-1.6-0.4
			c-0.8-0.2-1.4-0.4-1.7-0.5c-0.4-0.2-0.7-0.5-0.9-0.8c-0.2-0.3-0.3-0.7-0.3-1.1c0-0.4,0.1-0.9,0.4-1.2c0.3-0.4,0.6-0.7,1.1-0.9
			c0.5-0.2,1-0.3,1.6-0.3c0.7,0,1.2,0.1,1.7,0.3c0.5,0.2,0.9,0.5,1.1,0.9c0.3,0.4,0.4,0.9,0.4,1.4l-1.1,0.1c-0.1-0.6-0.3-1-0.6-1.3
			c-0.3-0.3-0.9-0.4-1.5-0.4c-0.7,0-1.2,0.1-1.5,0.4c-0.3,0.3-0.5,0.6-0.5,0.9c0,0.3,0.1,0.6,0.3,0.8c0.2,0.2,0.8,0.4,1.8,0.6
			c0.9,0.2,1.6,0.4,1.9,0.6c0.5,0.2,0.9,0.5,1.1,0.9c0.2,0.4,0.4,0.8,0.4,1.2c0,0.5-0.1,0.9-0.4,1.3s-0.7,0.7-1.2,1
			c-0.5,0.2-1.1,0.3-1.7,0.3c-0.8,0-1.5-0.1-2-0.3s-1-0.6-1.3-1C240.8,34.8,240.7,34.3,240.7,33.7z"/>
        <path d="M250.8,36.6l-2.3-8.8h1.2l1.3,5.8c0.1,0.6,0.3,1.2,0.4,1.8c0.2-0.9,0.4-1.5,0.4-1.6l1.7-5.9h1.4l1.3,4.4
			c0.3,1.1,0.5,2.1,0.7,3.1c0.1-0.6,0.3-1.2,0.4-1.9l1.4-5.6h1.2l-2.4,8.8h-1.1l-1.9-6.7c-0.2-0.6-0.2-0.9-0.3-1
			c-0.1,0.4-0.2,0.7-0.3,1l-1.9,6.7H250.8z"/>
        <path d="M260.8,36.6v-8.8h6.3v1H262v2.7h4.9v1H262v3h5.4v1H260.8z"/>
        <path d="M268,36.6l3.4-8.8h1.3l3.6,8.8h-1.3l-1-2.7h-3.7l-1,2.7H268z M270.6,33h3l-0.9-2.4c-0.3-0.7-0.5-1.3-0.6-1.8
			c-0.1,0.6-0.3,1.1-0.5,1.7L270.6,33z"/>
        <path d="M277.2,36.6v-8.8h3.9c0.8,0,1.4,0.1,1.8,0.2c0.4,0.2,0.7,0.4,1,0.8c0.2,0.4,0.4,0.8,0.4,1.3c0,0.6-0.2,1.1-0.6,1.6
			c-0.4,0.4-1,0.7-1.9,0.8c0.3,0.1,0.5,0.3,0.7,0.4c0.3,0.3,0.7,0.7,1,1.2l1.5,2.4h-1.5l-1.2-1.8c-0.3-0.5-0.6-0.9-0.8-1.2
			c-0.2-0.3-0.4-0.5-0.6-0.6c-0.2-0.1-0.3-0.2-0.5-0.2c-0.1,0-0.3,0-0.6,0h-1.3v3.9H277.2z M278.4,31.7h2.5c0.5,0,0.9-0.1,1.2-0.2
			c0.3-0.1,0.5-0.3,0.7-0.5c0.2-0.2,0.2-0.5,0.2-0.8c0-0.4-0.2-0.8-0.5-1s-0.8-0.4-1.4-0.4h-2.8V31.7z"/>
	</g>
        <g>
		<path d="M99.4,28.9l4.4-0.4c0.3,1.5,0.8,2.6,1.6,3.3c0.8,0.7,1.9,1,3.3,1c1.5,0,2.6-0.3,3.3-0.9c0.7-0.6,1.1-1.3,1.1-2.2
			c0-0.5-0.2-1-0.5-1.4s-0.9-0.7-1.6-1c-0.5-0.2-1.7-0.5-3.6-1c-2.4-0.6-4.2-1.3-5.1-2.2c-1.4-1.2-2.1-2.8-2.1-4.5
			c0-1.1,0.3-2.2,1-3.2s1.6-1.8,2.8-2.3c1.2-0.5,2.7-0.8,4.4-0.8c2.8,0,5,0.6,6.4,1.9c1.4,1.2,2.2,2.9,2.3,5l-4.6,0.2
			c-0.2-1.2-0.6-2-1.3-2.5c-0.6-0.5-1.6-0.8-2.9-0.8c-1.3,0-2.4,0.3-3.1,0.8c-0.5,0.3-0.7,0.8-0.7,1.4c0,0.5,0.2,1,0.7,1.4
			c0.6,0.5,2,1,4.2,1.5c2.2,0.5,3.9,1.1,4.9,1.6c1.1,0.6,1.9,1.3,2.5,2.3c0.6,1,0.9,2.2,0.9,3.6c0,1.3-0.4,2.5-1.1,3.6
			c-0.7,1.1-1.7,2-3,2.5c-1.3,0.5-3,0.8-4.9,0.8c-2.9,0-5-0.7-6.6-2S99.7,31.4,99.4,28.9z"/>
            <path d="M125,24.9l-3.9-0.7c0.4-1.6,1.2-2.8,2.3-3.5c1.1-0.8,2.7-1.1,4.8-1.1c1.9,0,3.4,0.2,4.3,0.7c0.9,0.5,1.6,1,2,1.7
			c0.4,0.7,0.6,2,0.6,3.9l0,5c0,1.4,0.1,2.5,0.2,3.2s0.4,1.4,0.8,2.2h-4.3c-0.1-0.3-0.3-0.7-0.4-1.3c-0.1-0.3-0.1-0.4-0.2-0.5
			c-0.7,0.7-1.5,1.3-2.4,1.6c-0.8,0.4-1.7,0.5-2.7,0.5c-1.7,0-3-0.5-4-1.4c-1-0.9-1.5-2.1-1.5-3.5c0-0.9,0.2-1.7,0.7-2.5
			s1.1-1.3,1.9-1.7c0.8-0.4,1.9-0.7,3.4-1c2-0.4,3.4-0.7,4.2-1.1v-0.4c0-0.8-0.2-1.4-0.6-1.8c-0.4-0.4-1.2-0.5-2.3-0.5
			c-0.8,0-1.4,0.2-1.8,0.5C125.6,23.6,125.3,24.1,125,24.9z M130.8,28.4c-0.6,0.2-1.4,0.4-2.6,0.7c-1.2,0.3-2,0.5-2.4,0.8
			c-0.6,0.4-0.8,0.9-0.8,1.5c0,0.6,0.2,1.1,0.7,1.6c0.5,0.4,1,0.7,1.7,0.7c0.8,0,1.5-0.3,2.2-0.8c0.5-0.4,0.9-0.9,1-1.4
			c0.1-0.4,0.2-1.1,0.2-2.1V28.4z"/>
            <path d="M150.2,36.2v-2.4c-0.6,0.9-1.4,1.6-2.3,2.1c-1,0.5-2,0.8-3.1,0.8c-1.1,0-2.1-0.2-3-0.7c-0.9-0.5-1.5-1.2-1.9-2
			c-0.4-0.9-0.6-2.1-0.6-3.6V19.9h4.3v7.5c0,2.3,0.1,3.7,0.2,4.2c0.2,0.5,0.4,0.9,0.9,1.2c0.4,0.3,1,0.5,1.6,0.5
			c0.7,0,1.4-0.2,2-0.6c0.6-0.4,1-0.9,1.2-1.5c0.2-0.6,0.3-2.1,0.3-4.4v-6.9h4.3v16.3H150.2z"/>
            <path d="M168.3,31l4.3,0.7c-0.6,1.6-1.4,2.8-2.6,3.6c-1.2,0.8-2.7,1.2-4.5,1.2c-2.8,0-4.9-0.9-6.3-2.8c-1.1-1.5-1.6-3.4-1.6-5.6
			c0-2.7,0.7-4.8,2.1-6.4c1.4-1.5,3.2-2.3,5.4-2.3c2.4,0,4.4,0.8,5.8,2.4c1.4,1.6,2.1,4.1,2,7.4H162c0,1.3,0.4,2.3,1,3
			c0.7,0.7,1.5,1.1,2.5,1.1c0.7,0,1.2-0.2,1.7-0.6C167.8,32.4,168.1,31.9,168.3,31z M168.6,26.7c0-1.3-0.4-2.2-1-2.9
			c-0.6-0.7-1.4-1-2.2-1c-0.9,0-1.7,0.3-2.3,1c-0.6,0.7-0.9,1.6-0.9,2.8H168.6z"/>
            <path d="M180.7,36.2h-4.3V19.9h4v2.3c0.7-1.1,1.3-1.8,1.9-2.2c0.5-0.3,1.2-0.5,1.9-0.5c1,0,1.9,0.3,2.8,0.8l-1.3,3.8
			c-0.7-0.5-1.4-0.7-2-0.7c-0.6,0-1.1,0.2-1.5,0.5s-0.8,0.9-1,1.8c-0.2,0.9-0.4,2.7-0.4,5.5V36.2z"/>
	</g>
        <line class="st0" x1="192.5" y1="37.8" x2="192.6" y2="13.3"/>
</g>
    <g>
	<path d="M68.8,1.7c-13,0-23.5,10.5-23.5,23.5c0,13,10.5,23.5,23.5,23.5c13,0,23.5-10.5,23.5-23.5C92.3,12.2,81.8,1.7,68.8,1.7z
		 M68.8,41.6c-9.1,0-16.4-7.4-16.4-16.4S59.7,8.7,68.8,8.7s16.4,7.4,16.4,16.4S77.9,41.6,68.8,41.6z"/>
        <path d="M68.9,15.5c-5.3,0-9.6,4.3-9.6,9.6s4.3,9.6,9.6,9.6s9.6-4.3,9.6-9.6S74.2,15.5,68.9,15.5z M68.9,29.1
		c-2.2,0-3.9-1.7-3.9-3.9c0-2.2,1.7-3.9,3.9-3.9c2.2,0,3.9,1.7,3.9,3.9C72.8,27.4,71,29.1,68.9,29.1z"/>
        <g>
		<rect x="68.4" y="24.8" class="st1" width="23.9" height="23.9"/>
            <path class="st2" d="M87.3,35.2L87.3,35.2L87.3,35.2c-3.3-1.2-1.4-0.4-5.8-1.7C77,32.2,77.1,32,77.1,32c-0.4-0.2-0.4-0.9-0.4-0.9
			s-0.2-1.3,3.2-1.4c3.4-0.1,3.2,2.5,3.2,2.5l7.8-0.1c0,0,0.7-7.5-10.9-7.6s-11.2,7.6-11.2,7.6s-0.2,4.7,5.4,5.8
			c5.6,1,8.6,2.5,8.6,2.5l0,0c0.5,0.3,1.9,1.2-0.2,2.8c-1.4,0.7-2.6,0.6-2.6,0.6c-4.4-0.3-4.1-3.1-4.1-3.1v-0.3h-8.1
			c0,0-0.5,5.3,5.4,7.4c5.9,2.1,13.3,0,13.3,0s3.7-0.8,5.4-5.4C93.7,37.8,87.3,35.2,87.3,35.2z"/>
	</g>

        <rect x="67.5" y="24.6" transform="matrix(-1 -1.224647e-16 1.224647e-16 -1 135.9098 75.5852)" class="st3"
              width="0.8" height="26.5"/>

        <rect x="80.6" y="11.6" transform="matrix(-1.836970e-16 1 -1 -1.836970e-16 105.5805 -56.4573)" class="st3"
              width="0.8" height="26"/>
</g>
</svg>
