<?xml version="1.0" encoding="utf-8"?>
<!-- Generator: Adobe Illustrator 25.1.0, SVG Export Plug-In . SVG Version: 6.00 Build 0)  -->
<svg version="1.1" id="Ebene_1" xmlns="http://www.w3.org/2000/svg" x="0px"
     y="0px"
     viewBox="0 0 328.8 51" style="enable-background:new 0 0 328.8 51;" xml:space="preserve">
<style type="text/css">
	.st0{fill:#FFFFFF;}
	.st1{fill:none;stroke:#000000;stroke-width:8.628177e-02;stroke-miterlimit:10;}
	.st2{fill:#020202;}
	.st3{fill:#AFAEAE;}
	.st4{fill:none;stroke:#1D1D1B;stroke-width:4.314088e-02;stroke-miterlimit:10;}
	.st5{fill:#6D3914;}
	.st6{fill:#6D3A15;}
	.st7{fill:#E1950A;}
	.st8{fill:#1D1D1B;}
	.st9{fill:#48742D;}
	.st10{fill:#549065;}
	.st11{fill:#396190;}
	.st12{fill:none;stroke:#D0C468;stroke-width:6.471133e-02;stroke-miterlimit:10;}
	.st13{fill:#CE151A;}
	.st14{fill:none;stroke:#020202;stroke-width:2.157044e-02;stroke-miterlimit:10;}
	.st15{fill:#D5A913;}
	.st16{fill:none;stroke:#1D1D1B;stroke-width:2.157044e-02;stroke-miterlimit:10;}
	.st17{fill:none;stroke:#000000;stroke-width:2.157044e-02;stroke-miterlimit:10;}
	.st18{fill:#1A4D9B;}
	.st19{fill:none;stroke:#1D1D1B;stroke-width:6.471133e-02;stroke-miterlimit:10;}
	.st20{fill:#E51D2A;}
	.st21{fill:#F9DC15;}
</style>
    <g>
	<path class="st0" d="M121,26c0,12.4-10.1,22.5-22.5,22.5c-12.4,0-22.5-10.1-22.5-22.5S86.2,3.6,98.6,3.6C111,3.6,121,13.6,121,26
		L121,26z"/>
        <path class="st1" d="M121,26c0,12.4-10.1,22.5-22.5,22.5c-12.4,0-22.5-10.1-22.5-22.5S86.2,3.6,98.6,3.6C111,3.6,121,13.6,121,26
		L121,26z"/>
        <path class="st0"
              d="M117,26c0,10.2-8.2,18.4-18.4,18.4S80.2,36.2,80.2,26S88.4,7.6,98.6,7.6S117,15.8,117,26L117,26z"/>
        <path class="st1"
              d="M117,26c0,10.2-8.2,18.4-18.4,18.4S80.2,36.2,80.2,26S88.4,7.6,98.6,7.6S117,15.8,117,26L117,26z"/>
        <path class="st0" d="M112.4,26c0,7.6-6.2,13.8-13.8,13.8c-7.6,0-13.8-6.2-13.8-13.8S91,12.2,98.6,12.2
		C106.2,12.2,112.4,18.4,112.4,26L112.4,26z"/>
        <path class="st1" d="M112.4,26c0,7.6-6.2,13.8-13.8,13.8c-7.6,0-13.8-6.2-13.8-13.8S91,12.2,98.6,12.2
		C106.2,12.2,112.4,18.4,112.4,26L112.4,26z"/>
        <path class="st0" d="M107.8,26c0,5.1-4.1,9.2-9.2,9.2c-5.1,0-9.2-4.1-9.2-9.2s4.1-9.2,9.2-9.2C103.7,16.8,107.8,20.9,107.8,26
		L107.8,26z"/>
        <path class="st1" d="M107.8,26c0,5.1-4.1,9.2-9.2,9.2c-5.1,0-9.2-4.1-9.2-9.2s4.1-9.2,9.2-9.2C103.7,16.8,107.8,20.9,107.8,26
		L107.8,26z"/>
        <path class="st0" d="M103.2,26c0,2.5-2.1,4.6-4.6,4.6C96,30.6,94,28.5,94,26c0-2.5,2.1-4.6,4.6-4.6C101.1,21.4,103.2,23.5,103.2,26
		L103.2,26z"/>
        <path class="st1" d="M103.2,26c0,2.5-2.1,4.6-4.6,4.6C96,30.6,94,28.5,94,26c0-2.5,2.1-4.6,4.6-4.6C101.1,21.4,103.2,23.5,103.2,26
		L103.2,26z"/>
        <path class="st2" d="M100,26c0,0.8-0.6,1.4-1.4,1.4c-0.8,0-1.4-0.6-1.4-1.4c0-0.8,0.6-1.4,1.4-1.4C99.4,24.6,100,25.2,100,26
		L100,26z"/>
        <path class="st1" d="M100,26c0,0.8-0.6,1.4-1.4,1.4c-0.8,0-1.4-0.6-1.4-1.4c0-0.8,0.6-1.4,1.4-1.4C99.4,24.6,100,25.2,100,26
		L100,26z M98.6,3.6v44.9 M76.1,26H121"/>
        <polygon class="st3" points="91.7,16.3 90.8,17.1 80.8,6.2 81.7,5.4 91.7,16.3 	"/>
        <polygon class="st4" points="91.7,16.3 90.8,17.1 80.8,6.2 81.7,5.4 91.7,16.3 	"/>
        <path class="st3" d="M85.2,7.6l-0.6,0.6c0,0-0.1,0-0.1,0l-2.3-2.4c0,0,0-0.1,0-0.1l0.6-0.6c0,0,0.1,0,0.1,0l2.3,2.4
		C85.2,7.6,85.2,7.6,85.2,7.6L85.2,7.6z"/>
        <path class="st4" d="M85.2,7.6l-0.6,0.6c0,0-0.1,0-0.1,0l-2.3-2.4c0,0,0-0.1,0-0.1l0.6-0.6c0,0,0.1,0,0.1,0l2.3,2.4
		C85.2,7.6,85.2,7.6,85.2,7.6L85.2,7.6z"/>
        <path class="st5" d="M106.4,31.2l5.4,4.9l-1.5,4.4c0,0-0.5,3.1-3.8-0.4c-0.8-2.6,1-3.7,1-3.7s0.5-0.9-0.8-1.4
		c-1.3-0.5-2.1-1.4-2.1-1.4L106.4,31.2L106.4,31.2z"/>
        <path class="st4" d="M106.4,31.2l5.4,4.9l-1.5,4.4c0,0-0.5,3.1-3.8-0.4c-0.8-2.6,1-3.7,1-3.7s0.5-0.9-0.8-1.4
		c-1.3-0.5-2.1-1.4-2.1-1.4L106.4,31.2L106.4,31.2z"/>
        <path class="st3" d="M112.5,34.7c0,0,0.4-1.5,0-2.3c-0.4-0.8-0.7-0.8-0.7-0.8s-0.4-0.4-0.6,0c-0.2,0.4,0.3,1,0.3,1s0.5,1.1,0,1.7
		c-0.4,0.6,0.4,0.9,0.4,0.9L112.5,34.7L112.5,34.7z"/>
        <path class="st4" d="M112.5,34.7c0,0,0.4-1.5,0-2.3c-0.4-0.8-0.7-0.8-0.7-0.8s-0.4-0.4-0.6,0c-0.2,0.4,0.3,1,0.3,1s0.5,1.1,0,1.7
		c-0.4,0.6,0.4,0.9,0.4,0.9L112.5,34.7L112.5,34.7z"/>
        <path class="st3" d="M103.8,35.3c0,0,0.9,0.8,1.7,0.8c0.8,0,0.8-0.2,0.8-0.2s0.4-0.2,0.2-0.4c-0.2-0.3-0.8-0.1-0.8-0.1
		s-0.9,0-1.3-0.6c-0.3-0.5-0.8-0.1-0.8-0.1L103.8,35.3L103.8,35.3z"/>
        <path class="st4" d="M103.8,35.3c0,0,0.9,0.8,1.7,0.8c0.8,0,0.8-0.2,0.8-0.2s0.4-0.2,0.2-0.4c-0.2-0.3-0.8-0.1-0.8-0.1
		s-0.9,0-1.3-0.6c-0.3-0.5-0.8-0.1-0.8-0.1L103.8,35.3L103.8,35.3z"/>
        <path class="st3" d="M101.8,36.7c0,0,2.2,0.9,3.6,0.8c1.4-0.2,1.4-0.4,1.4-0.4s0.6-0.3,0.1-0.6c-0.5-0.3-1.6,0-1.6,0
		s-1.8,0.1-2.7-0.5c-0.9-0.7-1.5,0.1-1.5,0.1L101.8,36.7L101.8,36.7z"/>
        <path class="st4" d="M101.8,36.7c0,0,2.2,0.9,3.6,0.8c1.4-0.2,1.4-0.4,1.4-0.4s0.6-0.3,0.1-0.6c-0.5-0.3-1.6,0-1.6,0
		s-1.8,0.1-2.7-0.5c-0.9-0.7-1.5,0.1-1.5,0.1L101.8,36.7L101.8,36.7z"/>
        <path class="st6" d="M112.9,35.8l7.9,7.4l-5,5c0,0-0.6,0.3-1,0c-0.4-0.3-3.4-2.9-4.1-5.4c-0.7-2.5,0.7-6.7,0.7-6.7L112.9,35.8
		L112.9,35.8z"/>
        <path class="st4" d="M112.9,35.8l7.9,7.4l-5,5c0,0-0.6,0.3-1,0c-0.4-0.3-3.4-2.9-4.1-5.4c-0.7-2.5,0.7-6.7,0.7-6.7L112.9,35.8
		L112.9,35.8z"/>
        <path class="st6" d="M114.9,48.7l1,1c0,0,0.1,0,0.1,0l5.8-5.8c0,0,0-0.1,0-0.1l-1-1c0,0-0.1,0-0.1,0l-5.8,5.8
		C114.9,48.6,114.9,48.7,114.9,48.7L114.9,48.7z"/>
        <path class="st4" d="M114.9,48.7l1,1c0,0,0.1,0,0.1,0l5.8-5.8c0,0,0-0.1,0-0.1l-1-1c0,0-0.1,0-0.1,0l-5.8,5.8
		C114.9,48.6,114.9,48.7,114.9,48.7L114.9,48.7z"/>
        <path class="st7" d="M116.2,43.1l1.6,1.2c0,0,0.2,0.9-0.8,0.5c-1-0.4-1.2-1.2-1.2-1.2s-0.9-1-0.2-0.8
		C116.2,43.1,116.2,43.1,116.2,43.1L116.2,43.1z"/>
        <path class="st4" d="M116.2,43.1l1.6,1.2c0,0,0.2,0.9-0.8,0.5c-1-0.4-1.2-1.2-1.2-1.2s-0.9-1-0.2-0.8
		C116.2,43.1,116.2,43.1,116.2,43.1L116.2,43.1z"/>
        <path class="st7" d="M113.8,41.8c0,0-0.3-0.1-0.4,0.5c-0.1,0.6,0.8,2.6,0.8,2.6l1.1,2.1c0,0,0.9,0.3,0.8-0.7
		c-0.1-1-1.6-2.9-1.6-2.9L113.8,41.8L113.8,41.8z"/>
        <path class="st4" d="M113.8,41.8c0,0-0.3-0.1-0.4,0.5c-0.1,0.6,0.8,2.6,0.8,2.6l1.1,2.1c0,0,0.9,0.3,0.8-0.7
		c-0.1-1-1.6-2.9-1.6-2.9L113.8,41.8L113.8,41.8z"/>
        <path class="st7" d="M113.4,37.9c0,0,1,3.2,3.9,2.5c2.6,1.4,0,1.8,0,1.8s-2.1,0-3.2-1.1c-1-1.1-1.7-2.1-1.7-2.1s-0.6-1.1,0-1.6
		C112.5,37.1,113.4,37.9,113.4,37.9L113.4,37.9z"/>
        <path class="st4" d="M113.4,37.9c0,0,1,3.2,3.9,2.5c2.6,1.4,0,1.8,0,1.8s-2.1,0-3.2-1.1c-1-1.1-1.7-2.1-1.7-2.1s-0.6-1.1,0-1.6
		C112.5,37.1,113.4,37.9,113.4,37.9L113.4,37.9z"/>
        <path class="st7"
              d="M107.8,36.1c0,0.3,0.4,0.6,0.9,0.6s0.9-0.3,0.9-0.6c0-0.3-0.4-0.6-0.9-0.6S107.8,35.8,107.8,36.1L107.8,36.1z"
        />
        <path class="st4"
              d="M107.8,36.1c0,0.3,0.4,0.6,0.9,0.6s0.9-0.3,0.9-0.6c0-0.3-0.4-0.6-0.9-0.6S107.8,35.8,107.8,36.1L107.8,36.1z"
        />
        <path class="st7"
              d="M107.8,37.2c0,0.3,0.4,0.6,0.9,0.6s0.9-0.3,0.9-0.6c0-0.3-0.4-0.6-0.9-0.6S107.8,36.9,107.8,37.2L107.8,37.2z"
        />
        <path class="st4"
              d="M107.8,37.2c0,0.3,0.4,0.6,0.9,0.6s0.9-0.3,0.9-0.6c0-0.3-0.4-0.6-0.9-0.6S107.8,36.9,107.8,37.2L107.8,37.2z"
        />
        <path class="st7"
              d="M107.8,38.3c0,0.3,0.4,0.6,0.9,0.6s0.9-0.3,0.9-0.6c0-0.3-0.4-0.6-0.9-0.6S107.8,38,107.8,38.3L107.8,38.3z"/>
        <path class="st4"
              d="M107.8,38.3c0,0.3,0.4,0.6,0.9,0.6s0.9-0.3,0.9-0.6c0-0.3-0.4-0.6-0.9-0.6S107.8,38,107.8,38.3L107.8,38.3z"/>
        <path class="st3" d="M105.8,28.5l-1,1c0,0,0,0.1,0,0.1l7,7c0,0,0.1,0,0.1,0l1-1c0,0,0-0.1,0-0.1l-7-7
		C105.9,28.5,105.8,28.5,105.8,28.5L105.8,28.5z"/>
        <path class="st4" d="M105.8,28.5l-1,1c0,0,0,0.1,0,0.1l7,7c0,0,0.1,0,0.1,0l1-1c0,0,0-0.1,0-0.1l-7-7
		C105.9,28.5,105.8,28.5,105.8,28.5L105.8,28.5z"/>
        <polygon class="st3" points="105.5,16.4 106.4,17.2 116.4,6.2 115.5,5.4 105.5,16.4 	"/>
        <polygon class="st4" points="105.5,16.4 106.4,17.2 116.4,6.2 115.5,5.4 105.5,16.4 	"/>
        <path class="st3" d="M112,7.7l0.6,0.6c0,0,0.1,0,0.1,0l2.3-2.4c0,0,0-0.1,0-0.1l-0.6-0.6c0,0-0.1,0-0.1,0L112,7.6
		C112,7.6,112,7.6,112,7.7L112,7.7z"/>
        <path class="st4" d="M112,7.7l0.6,0.6c0,0,0.1,0,0.1,0l2.3-2.4c0,0,0-0.1,0-0.1l-0.6-0.6c0,0-0.1,0-0.1,0L112,7.6
		C112,7.6,112,7.6,112,7.7L112,7.7z"/>
        <path class="st5" d="M90.9,31.2l-5.4,4.9l1.5,4.4c0,0,0.5,3.1,3.8-0.4c0.8-2.6-1-3.7-1-3.7s-0.5-0.9,0.8-1.4
		c1.3-0.5,2.1-1.4,2.1-1.4L90.9,31.2L90.9,31.2z"/>
        <path class="st4" d="M90.9,31.2l-5.4,4.9l1.5,4.4c0,0,0.5,3.1,3.8-0.4c0.8-2.6-1-3.7-1-3.7s-0.5-0.9,0.8-1.4
		c1.3-0.5,2.1-1.4,2.1-1.4L90.9,31.2L90.9,31.2z"/>
        <path class="st3" d="M84.8,34.8c0,0-0.4-1.5,0-2.3c0.4-0.8,0.7-0.8,0.7-0.8s0.4-0.4,0.6,0c0.2,0.4-0.3,1-0.3,1s-0.5,1.1,0,1.7
		c0.4,0.6-0.4,0.9-0.4,0.9L84.8,34.8L84.8,34.8z"/>
        <path class="st4" d="M84.8,34.8c0,0-0.4-1.5,0-2.3c0.4-0.8,0.7-0.8,0.7-0.8s0.4-0.4,0.6,0c0.2,0.4-0.3,1-0.3,1s-0.5,1.1,0,1.7
		c0.4,0.6-0.4,0.9-0.4,0.9L84.8,34.8L84.8,34.8z"/>
        <path class="st3" d="M93.4,35.3c0,0-0.9,0.8-1.7,0.8c-0.8,0-0.8-0.2-0.8-0.2s-0.4-0.2-0.2-0.4c0.2-0.3,0.8-0.1,0.8-0.1
		s0.9,0,1.3-0.6c0.3-0.5,0.8-0.1,0.8-0.1L93.4,35.3L93.4,35.3z"/>
        <path class="st4" d="M93.4,35.3c0,0-0.9,0.8-1.7,0.8c-0.8,0-0.8-0.2-0.8-0.2s-0.4-0.2-0.2-0.4c0.2-0.3,0.8-0.1,0.8-0.1
		s0.9,0,1.3-0.6c0.3-0.5,0.8-0.1,0.8-0.1L93.4,35.3L93.4,35.3z"/>
        <path class="st3" d="M95.5,36.7c0,0-2.2,0.9-3.6,0.8c-1.4-0.2-1.4-0.4-1.4-0.4s-0.6-0.3-0.1-0.6c0.5-0.3,1.6,0,1.6,0
		s1.8,0.1,2.7-0.5c0.9-0.7,1.5,0.1,1.5,0.1L95.5,36.7L95.5,36.7z"/>
        <path class="st4" d="M95.5,36.7c0,0-2.2,0.9-3.6,0.8c-1.4-0.2-1.4-0.4-1.4-0.4s-0.6-0.3-0.1-0.6c0.5-0.3,1.6,0,1.6,0
		s1.8,0.1,2.7-0.5c0.9-0.7,1.5,0.1,1.5,0.1L95.5,36.7L95.5,36.7z"/>
        <path class="st6" d="M84.3,35.9l-7.9,7.4l5,5c0,0,0.6,0.3,1,0c0.4-0.3,3.4-2.9,4.1-5.4c0.7-2.5-0.7-6.7-0.7-6.7L84.3,35.9
		L84.3,35.9z"/>
        <path class="st4" d="M84.3,35.9l-7.9,7.4l5,5c0,0,0.6,0.3,1,0c0.4-0.3,3.4-2.9,4.1-5.4c0.7-2.5-0.7-6.7-0.7-6.7L84.3,35.9
		L84.3,35.9z"/>
        <path class="st6" d="M82.3,48.8l-1,1c0,0-0.1,0-0.1,0L75.5,44c0,0,0-0.1,0-0.1l1-1c0,0,0.1,0,0.1,0l5.8,5.8
		C82.4,48.7,82.4,48.7,82.3,48.8L82.3,48.8z"/>
        <path class="st4" d="M82.3,48.8l-1,1c0,0-0.1,0-0.1,0L75.5,44c0,0,0-0.1,0-0.1l1-1c0,0,0.1,0,0.1,0l5.8,5.8
		C82.4,48.7,82.4,48.7,82.3,48.8L82.3,48.8z"/>
        <path class="st7" d="M81,43.2l-1.6,1.2c0,0-0.2,0.9,0.8,0.5c1-0.4,1.2-1.2,1.2-1.2s0.9-1,0.2-0.8C81,43.2,81,43.2,81,43.2L81,43.2z
		"/>
        <path class="st4" d="M81,43.2l-1.6,1.2c0,0-0.2,0.9,0.8,0.5c1-0.4,1.2-1.2,1.2-1.2s0.9-1,0.2-0.8C81,43.2,81,43.2,81,43.2L81,43.2z
		"/>
        <path class="st7" d="M83.4,41.8c0,0,0.3-0.1,0.4,0.5C83.9,42.9,83,45,83,45L81.9,47c0,0-0.9,0.3-0.8-0.7c0.1-1,1.6-2.9,1.6-2.9
		L83.4,41.8L83.4,41.8z"/>
        <path class="st4" d="M83.4,41.8c0,0,0.3-0.1,0.4,0.5C83.9,42.9,83,45,83,45L81.9,47c0,0-0.9,0.3-0.8-0.7c0.1-1,1.6-2.9,1.6-2.9
		L83.4,41.8L83.4,41.8z"/>
        <path class="st7" d="M83.8,37.9c0,0-1,3.2-3.9,2.5c-2.6,1.4,0,1.8,0,1.8s2.1,0,3.2-1.1c1-1.1,1.7-2.1,1.7-2.1s0.6-1.1,0-1.6
		C84.7,37.1,83.8,37.9,83.8,37.9L83.8,37.9z"/>
        <path class="st4" d="M83.8,37.9c0,0-1,3.2-3.9,2.5c-2.6,1.4,0,1.8,0,1.8s2.1,0,3.2-1.1c1-1.1,1.7-2.1,1.7-2.1s0.6-1.1,0-1.6
		C84.7,37.1,83.8,37.9,83.8,37.9L83.8,37.9z"/>
        <path class="st7" d="M89.4,36.2c0,0.3-0.4,0.6-0.9,0.6c-0.5,0-0.9-0.3-0.9-0.6c0-0.3,0.4-0.6,0.9-0.6C89,35.6,89.4,35.9,89.4,36.2
		L89.4,36.2z"/>
        <path class="st4" d="M89.4,36.2c0,0.3-0.4,0.6-0.9,0.6c-0.5,0-0.9-0.3-0.9-0.6c0-0.3,0.4-0.6,0.9-0.6C89,35.6,89.4,35.9,89.4,36.2
		L89.4,36.2z"/>
        <path class="st7" d="M89.4,37.2c0,0.3-0.4,0.6-0.9,0.6c-0.5,0-0.9-0.3-0.9-0.6c0-0.3,0.4-0.6,0.9-0.6C89,36.7,89.4,36.9,89.4,37.2
		L89.4,37.2z"/>
        <path class="st4" d="M89.4,37.2c0,0.3-0.4,0.6-0.9,0.6c-0.5,0-0.9-0.3-0.9-0.6c0-0.3,0.4-0.6,0.9-0.6C89,36.7,89.4,36.9,89.4,37.2
		L89.4,37.2z"/>
        <path class="st7" d="M89.4,38.4c0,0.3-0.4,0.6-0.9,0.6c-0.5,0-0.9-0.3-0.9-0.6c0-0.3,0.4-0.6,0.9-0.6C89,37.8,89.4,38.1,89.4,38.4
		L89.4,38.4z"/>
        <path class="st4" d="M89.4,38.4c0,0.3-0.4,0.6-0.9,0.6c-0.5,0-0.9-0.3-0.9-0.6c0-0.3,0.4-0.6,0.9-0.6C89,37.8,89.4,38.1,89.4,38.4
		L89.4,38.4z"/>
        <path class="st3" d="M91.5,28.6l1,1c0,0,0,0.1,0,0.1l-7,7c0,0-0.1,0-0.1,0l-1-1c0,0,0-0.1,0-0.1l7-7C91.4,28.5,91.4,28.5,91.5,28.6
		L91.5,28.6z"/>
        <path class="st4" d="M91.5,28.6l1,1c0,0,0,0.1,0,0.1l-7,7c0,0-0.1,0-0.1,0l-1-1c0,0,0-0.1,0-0.1l7-7C91.4,28.5,91.4,28.5,91.5,28.6
		L91.5,28.6z"/>
        <polygon class="st0" points="107.8,19.9 89.6,19.9 89.6,11.9 107.8,11.9 107.8,19.9 	"/>
        <path class="st8" d="M93,17.4c0,0.1,0,0.3,0,0.3c0,0.1,0,0.1,0.1,0.2c0,0,0.1,0.1,0.2,0.1c0.1,0,0.2,0,0.3,0.1c0.1,0,0.3,0,0.4,0
		v0.3h-2.6v-0.3c0.3,0,0.5,0,0.6-0.1c0.1,0,0.2-0.1,0.3-0.1c0.1,0,0.1-0.1,0.1-0.2c0-0.1,0-0.2,0-0.4v-3c0-0.1,0-0.2-0.1-0.2
		c0,0-0.1-0.1-0.1-0.1c-0.1,0-0.2,0-0.3,0.1c-0.1,0.1-0.3,0.2-0.5,0.3l-0.2-0.3l1.7-1H93c0,0.2,0,0.6,0,1V17.4L93,17.4z"/>
        <path class="st8" d="M96.4,15.9c0.1,0,0.2,0,0.3,0c0.1,0,0.2,0,0.2-0.1c0.1,0,0.2-0.1,0.2-0.1c0.1,0,0.1-0.1,0.2-0.2
		c0,0,0,0,0.1-0.1c0,0,0-0.1,0-0.1c0-0.1,0-0.1,0-0.2c0-0.3,0-0.6-0.1-0.9c-0.1-0.2-0.2-0.4-0.3-0.6c-0.1-0.1-0.3-0.2-0.5-0.2
		c-0.2,0-0.3,0-0.5,0.1c-0.1,0.1-0.2,0.2-0.3,0.3c-0.1,0.1-0.1,0.2-0.2,0.4c0,0.2-0.1,0.3-0.1,0.5c0,0.4,0.1,0.7,0.2,0.9
		C96,15.8,96.2,15.9,96.4,15.9L96.4,15.9z M95.7,18.2V18c0.3,0,0.6-0.1,0.9-0.2c0.2-0.2,0.4-0.4,0.6-0.7c0.1-0.3,0.2-0.7,0.3-1.2
		l0,0c-0.2,0.2-0.4,0.3-0.6,0.3c-0.2,0.1-0.4,0.1-0.6,0.1c-0.3,0-0.5-0.1-0.7-0.2c-0.2-0.1-0.3-0.3-0.4-0.5
		c-0.1-0.2-0.1-0.5-0.1-0.8c0-0.2,0-0.4,0.1-0.6c0.1-0.2,0.2-0.4,0.3-0.5c0.1-0.2,0.3-0.3,0.5-0.4c0.2-0.1,0.5-0.1,0.7-0.1
		c0.5,0,0.9,0.2,1.1,0.5c0.3,0.4,0.4,0.9,0.4,1.6c0,0.6-0.1,1.2-0.3,1.6c-0.2,0.5-0.5,0.8-0.8,1.1c-0.3,0.3-0.8,0.4-1.2,0.4
		L95.7,18.2L95.7,18.2z"/>
        <path class="st8" d="M101.2,17.7c0.1,0,0.2,0,0.3,0c0.1,0,0.1,0,0.2-0.1c0,0,0.1-0.1,0.1-0.1c0-0.1,0.1-0.1,0.1-0.3h0.3l-0.1,1.1
		h-3v-0.2c0.1-0.3,0.2-0.5,0.4-0.8c0.2-0.3,0.4-0.6,0.7-1c0.3-0.3,0.5-0.6,0.6-0.7c0.1-0.2,0.2-0.3,0.3-0.5c0.1-0.1,0.1-0.3,0.1-0.4
		c0-0.1,0-0.2,0-0.4c0-0.2,0-0.4-0.1-0.5c-0.1-0.1-0.1-0.3-0.3-0.3c-0.1-0.1-0.3-0.1-0.4-0.1c-0.4,0-0.7,0.3-0.9,0.8h-0.4v-0.7
		c0.3-0.1,0.6-0.2,0.8-0.3c0.3-0.1,0.5-0.1,0.7-0.1c0.4,0,0.8,0.1,1,0.3c0.2,0.2,0.3,0.5,0.3,0.9c0,0.1,0,0.3,0,0.4
		c0,0.1-0.1,0.2-0.1,0.3c-0.1,0.1-0.1,0.2-0.2,0.4c-0.1,0.1-0.2,0.3-0.3,0.4c-0.1,0.1-0.3,0.3-0.6,0.6c-0.5,0.5-0.8,0.9-1,1.3H101.2
		L101.2,17.7z"/>
        <path class="st8" d="M103.3,14.3v-0.7c0.3-0.1,0.5-0.2,0.8-0.3c0.2-0.1,0.5-0.1,0.7-0.1c0.3,0,0.5,0,0.7,0.1
		c0.2,0.1,0.4,0.2,0.5,0.4c0.1,0.2,0.2,0.4,0.2,0.6c0,0.2,0,0.4-0.1,0.6c-0.1,0.2-0.2,0.3-0.3,0.4c-0.1,0.1-0.3,0.2-0.6,0.4v0
		c0.1,0,0.3,0.1,0.4,0.1c0.1,0.1,0.3,0.2,0.4,0.3c0.1,0.1,0.2,0.2,0.3,0.4c0.1,0.1,0.1,0.3,0.1,0.5c0,0.3-0.1,0.5-0.2,0.8
		c-0.1,0.2-0.3,0.4-0.6,0.5c-0.2,0.1-0.6,0.2-0.9,0.2c-0.2,0-0.4,0-0.7-0.1c-0.2,0-0.5-0.1-0.7-0.2v-0.8h0.4
		c0.1,0.3,0.2,0.4,0.3,0.6c0.1,0.1,0.3,0.2,0.6,0.2c0.3,0,0.5-0.1,0.7-0.3c0.2-0.2,0.2-0.4,0.2-0.8c0-0.4-0.1-0.6-0.3-0.8
		c-0.2-0.2-0.5-0.3-0.9-0.3h-0.3v-0.3c0.3,0,0.6-0.1,0.8-0.2c0.2-0.1,0.4-0.3,0.5-0.4c0.1-0.2,0.2-0.4,0.2-0.6
		c0-0.3-0.1-0.5-0.2-0.6c-0.1-0.2-0.3-0.2-0.6-0.2c-0.2,0-0.4,0.1-0.5,0.2c-0.1,0.1-0.2,0.3-0.3,0.6H103.3L103.3,14.3z"/>
        <path class="st6" d="M91.7,29.8c-0.3,0-0.6-0.1-1-0.1c-0.2,0-0.4,0-0.5,0.1c-0.2,0.1-0.3,0.2-0.5,0.3c-0.3,0.2-0.6,0.4-0.9,0.5
		c-0.3,0.1-0.7,0.2-1,0.4c-0.1,0-0.1,0-0.1-0.1c0.3-0.2,0.7-0.2,1-0.4c0.4-0.2,0.7-0.4,1-0.7c0.6-0.4,1.4-0.3,1.9-0.2
		C91.8,29.7,91.8,29.8,91.7,29.8L91.7,29.8L91.7,29.8z"/>
        <path class="st6" d="M92.5,29.5c0,0.1,0,0.2,0,0.3c0,0.1-0.1,0.2-0.2,0.4c-0.1,0.3-0.2,0.6-0.2,0.8c0,0-0.1,0.1-0.1,0
		c0-0.2,0-0.5,0.1-0.7c0-0.1,0.1-0.2,0.1-0.3C92.4,29.8,92.4,29.7,92.5,29.5C92.4,29.4,92.5,29.4,92.5,29.5L92.5,29.5L92.5,29.5z"/>
        <path class="st9" d="M94.4,31.6c0,0,0.1-0.4,0.6-0.2c0.6,0.2,1.2-0.4,0.6-1.5c-0.2-0.4-0.8-0.2-1-1.6c-0.4-1.2-1.1-0.1-1.1,0.1
		c0.1,0.3-0.7,0.6-0.6-0.3c1.5-2.3-0.2-4.1-1.1-2.5c-0.7,2.2-1,0.9-1,0.9s0.4-2.2-0.2-3.3c-0.6-1.1-1.9-1.1-2.2,0.3
		c0,1.1-0.4,1.2-0.8,1c-0.4-0.2-0.6-2-0.9-2.5c-0.2-1-2.4-1.3-2.4,0.4c0.1,1.1-0.3,2.3-1,1.1c-0.7-1.3-3.3-0.9-3-0.1
		c0,0.2,0.8,1-0.3,1c-1.7-0.1-2.2,0.2-2.7,0.8c-0.6,0.9,2,0.7,2,0.7l5.7,2.3l8,3.4L94.4,31.6L94.4,31.6z"/>
        <path class="st10" d="M94.1,31.8c0,0-0.2,0.2-0.2,0.4c0.1,0.3-0.3,0.6-0.6,0.5c-0.3-0.1-1-0.6-1.6-0.4c-0.6,0.2-1.3,0.4-1.7,0.1
		c-0.4-0.3,0.3-0.8,0.3-0.8s0.5-0.6-0.4-0.3c-0.9,0.3-0.6,0.4-1.6,0.7c-1,0.3-1.5-0.2-1.6-0.3c-0.1-0.1-0.3-0.6,0.6-1.2
		c0.9-0.6-0.3-0.5-0.3-0.5L84.8,31c0,0-1.5,0.8-2.4,0.8c-1,0-1.1-0.7-0.7-1.2c0.4-0.6,2.2-1.2,0.8-1.5c-0.8-0.2-2.1,0.9-2.4,0.9
		c0,0-2.8,0.6-2-1.4c0.5-0.6,0.8-0.6,0.8-0.9c0-0.5-2.2-0.6-1.4-2.1c0.9-1.5,1.3-0.1,1.3-0.1s2.1,0.9,3.3,0.7
		c1.3-0.2,4.8,0.9,4.8,0.9s2.7,0.7,4.3,2.2C92.8,30.8,94.1,31.8,94.1,31.8L94.1,31.8z"/>
        <path class="st6" d="M98.3,32.9c0,0-0.4,0.1-0.6,0.7c-0.2,0.6-2.1-0.4-2.1-0.4s-2.6-1.9-3.6-3c-1-1-4.4-2.7-4.4-2.7s-2-0.8-3.1-1.1
		c-0.2-0.1-0.5-0.1-0.6-0.1c-0.5,0-1.3,0-1.8-0.2c-0.4-0.2-0.9,0-1.2-0.1c-0.1,0-0.3-0.1-0.4-0.1c-0.8-0.3-2.1-0.3-2.1-0.3l7,1.1
		c0,0,1.3,0.1,1.5,0.3c0.3,0.2,1.6,0.5,2.1,0.8c0.5,0.3,1.9,1.1,1.9,1.1l1.4,1l1.9,1.6l0.9,0.7c0,0,0.4,0.4,0.7,0.4
		C96.3,32.8,98.1,33.3,98.3,32.9L98.3,32.9z"/>
        <path class="st6" d="M89.7,23.6c0.4,0.6,0.4,1.4,0.1,2.2c-0.2,0.5-0.4,0.9-0.4,1.3c0,0.2,0,0.4,0,0.6c0.1,0.2,0.2,0.4,0.3,0.6
		c0,0-0.1,0.1-0.1,0.1c-0.2-0.3-0.4-0.6-0.4-0.9c0-0.4,0-0.8,0.2-1.1c0.2-0.4,0.4-0.9,0.4-1.3C90,24.5,89.9,24,89.7,23.6
		C89.6,23.6,89.7,23.6,89.7,23.6L89.7,23.6L89.7,23.6z"/>
        <path class="st6" d="M92.7,26.6c0,0.3,0,0.5-0.1,0.8c-0.1,0.3-0.2,0.5-0.4,0.8c-0.1,0.3-0.2,0.7-0.2,1c0,0.3,0.1,0.6,0.3,0.9
		c0,0.1-0.1,0.1-0.1,0.1c-0.1-0.2-0.3-0.5-0.3-0.7c0-0.3,0-0.5,0.1-0.8c0-0.1,0.1-0.3,0.2-0.4c0.1-0.2,0.2-0.3,0.2-0.5
		c0.1-0.3,0.2-0.7,0.1-1C92.6,26.6,92.7,26.6,92.7,26.6L92.7,26.6L92.7,26.6z"/>
        <path class="st6" d="M85.9,22.8c0.2,0.3,0.4,0.6,0.4,1c0.1,0.4,0.1,0.8,0,1.2c0,0.9,0.7,1.6,1.2,2.2c0,0-0.1,0.1-0.1,0.1
		c-0.3-0.3-0.5-0.7-0.8-1c-0.2-0.3-0.4-0.6-0.4-1c-0.1-0.4,0-0.8,0-1.2C86.2,23.7,86,23.2,85.9,22.8C85.7,22.8,85.8,22.8,85.9,22.8
		L85.9,22.8L85.9,22.8z"/>
        <path class="st6" d="M89.1,28.2c-0.9,0.2-1.8-0.1-2.7,0.3c-0.9,0.4-1.7,1.3-2.7,1.3c-0.1,0,0-0.1,0-0.1c1-0.1,1.8-1.1,2.8-1.4
		c0.9-0.3,1.7,0,2.5-0.2C89.1,28.1,89.1,28.2,89.1,28.2L89.1,28.2L89.1,28.2z"/>
        <path class="st6" d="M79.9,25c0.5,0.3,1.1,0.5,1.4,0.9c0,0.1-0.1,0.1-0.1,0.1C80.8,25.6,80.3,25.4,79.9,25
		C79.7,25.1,79.8,25,79.9,25L79.9,25L79.9,25z"/>
        <path class="st6" d="M82.3,24c0.4,0.3,0.8,0.7,1.1,1.1c0.3,0.4,0.6,0.8,0.8,1.3c0,0.1-0.1,0.1-0.1,0.1c-0.2-0.5-0.4-0.9-0.8-1.3
		C83,24.8,82.6,24.5,82.3,24C82.2,24.1,82.2,24,82.3,24L82.3,24L82.3,24z"/>
        <path class="st6" d="M84.6,26.6c-0.7,0.5-1.3,0.9-2.1,1.1c-0.4,0.1-0.7,0.1-1.1,0.1c-0.4,0.1-0.9,0.4-1.2,0.7c-0.1,0-0.1,0-0.1-0.1
		c0.3-0.3,0.7-0.5,1.1-0.7c0.3-0.1,0.7-0.1,1-0.2c0.4,0,0.8-0.1,1.2-0.3C83.8,27.1,84.1,26.8,84.6,26.6
		C84.6,26.5,84.7,26.6,84.6,26.6L84.6,26.6L84.6,26.6z"/>
        <path class="st6" d="M78.6,25.5c0.7,0.1,1.4,0.2,2.2,0.4c0.7,0.1,1.5,0.1,2.2,0.2c0.3,0,0.6,0.1,0.9,0.2c0.3,0.1,0.7,0.1,1,0.3
		c0.3,0.1,0.5,0.3,0.8,0.4c0.3,0.1,0.7,0.1,1,0.1c0.1,0,0.1,0.2,0,0.2c-0.3,0-0.6,0-0.9-0.1c-0.3-0.1-0.6-0.2-0.8-0.4
		c-0.3-0.2-0.6-0.2-1-0.3c-0.4-0.1-0.7-0.2-1.1-0.2c-0.7-0.1-1.4-0.1-2.1-0.2c-0.7-0.1-1.5-0.2-2.2-0.4
		C78.4,25.6,78.5,25.5,78.6,25.5L78.6,25.5L78.6,25.5z"/>
        <path class="st9"
              d="M77.6,25.5l0-0.2l0.6-0.6l0.5-0.1l0.3,0.4l0.1,0.2L79,25.4C79,25.4,78.4,25.2,77.6,25.5L77.6,25.5z"/>
        <polygon class="st10" points="80.9,26.8 82.7,26.8 84.2,26.5 83.7,26.3 83,26.2 82.6,26.2 82.1,26.1 81.5,26.1 80.9,26.5
		80.9,26.8 	"/>
        <path class="st10" d="M94.2,25.2c0,0-0.2,0.2,0.1,0.5c0.3,0.3,0.3,1-0.6,1.1c-0.3,0.1-0.5-0.4-1.3,0.2c-0.8,0.3-0.5-0.6-0.3-0.7
		c0.2-0.1,0.1-0.8-0.4-0.2c-0.7,2-2.3,1.8-1.8,0.5c0.9-1.5,0.1-1.1,0.1-1.1s-1,1.3-1.8,1.5c-0.8,0.2-1.3-0.7-0.7-1.5
		c0.6-0.5,0.5-0.8,0.2-1c-0.2-0.2-1.3,0.6-1.7,0.6c-0.6,0.3-1.6-0.9-0.7-1.7c0.6-0.4,1.1-1.3,0.2-1.1c-1,0.1-1.8-1.7-1.2-1.9
		c0.1-0.1,0.8,0.1,0.4-0.6c-0.7-1.1-0.8-1.5-0.6-2.1c0.3-0.8,1.2,1,1.2,1l3.4,2.6l4.9,3.5L94.2,25.2L94.2,25.2z"/>
        <path class="st9" d="M94.1,24.9c0,0,0-0.2,0.2-0.3c0.2-0.1,0.2-0.5,0-0.6c-0.2-0.1-0.7-0.3-0.8-0.8c-0.1-0.5-0.3-1-0.6-1.1
		c-0.3-0.1-0.3,0.6-0.3,0.6s-0.1,0.6-0.3-0.1c-0.2-0.7,0-0.6-0.2-1.4c-0.2-0.8-0.7-0.9-0.8-0.9c-0.1,0-0.4,0.1-0.4,0.9
		c0,0.9-0.4,0-0.4,0l-0.2-1.8c0,0-0.1-1.3-0.5-1.9c-0.4-0.6-0.8-0.4-0.9,0.1c-0.2,0.5,0.2,2-0.5,1.3c-0.4-0.5-0.3-1.8-0.5-1.9
		c0,0-0.8-2.1-1.5-0.6c-0.1,0.6,0,0.8-0.2,1c-0.3,0.2-1.2-1.1-1.6,0.1c-0.5,1.2,0.5,0.9,0.5,0.9s1.3,0.9,1.7,1.8
		c0.4,0.9,2.3,2.6,2.3,2.6s1.4,1.4,2.8,1.7C93.1,24.6,94.1,24.9,94.1,24.9L94.1,24.9z"/>
        <path class="st6" d="M96.4,27.1c0,0-0.1-0.3,0.1-0.7c0.2-0.4-1-1.2-1-1.2s-2-0.7-3-0.9c-0.9-0.2-3.1-1.5-3.1-1.5s-1.2-0.9-1.8-1.5
		c-0.1-0.1-0.2-0.2-0.3-0.3c-0.2-0.3-0.5-0.8-0.8-1.1c-0.3-0.2-0.4-0.6-0.5-0.7c-0.1,0-0.1-0.1-0.2-0.2c-0.4-0.4-1-1.2-1-1.2l3.3,4
		c0,0,0.6,0.7,0.7,0.8c0.2,0.1,0.9,0.8,1.2,1c0.4,0.2,1.4,0.7,1.4,0.7l1.1,0.4l1.6,0.4l0.7,0.3c0,0,0.4,0.1,0.5,0.3
		C95.6,25.9,96.5,26.8,96.4,27.1L96.4,27.1z"/>
        <path class="st6" d="M88.1,26c0.5,0,0.9-0.4,1.2-1c0.2-0.3,0.3-0.6,0.6-0.9c0.1-0.1,0.2-0.2,0.4-0.3c0.1-0.1,0.3-0.1,0.4-0.1
		c0,0,0-0.1,0-0.1c-0.2,0-0.5,0-0.7,0.2c-0.2,0.2-0.4,0.4-0.5,0.7c-0.2,0.3-0.3,0.6-0.5,0.9C88.7,25.7,88.4,25.9,88.1,26
		C88.1,25.9,88,26,88.1,26L88.1,26L88.1,26z"/>
        <path class="st6" d="M90.9,26.5c0.1-0.1,0.3-0.2,0.4-0.4c0.1-0.2,0.2-0.4,0.3-0.6c0.1-0.2,0.3-0.5,0.4-0.6c0.2-0.2,0.4-0.2,0.6-0.2
		c0,0,0-0.1,0-0.1c-0.2,0-0.3,0.1-0.5,0.2c-0.2,0.1-0.3,0.3-0.4,0.5c-0.1,0.1-0.1,0.2-0.2,0.3c-0.1,0.1-0.1,0.3-0.2,0.4
		C91.2,26.1,91,26.2,90.9,26.5C90.8,26.4,90.8,26.5,90.9,26.5L90.9,26.5L90.9,26.5z"/>
        <path class="st6" d="M92.2,24.3c-0.1-0.2-0.3-0.4-0.4-0.6c-0.1-0.1-0.1-0.2-0.2-0.4c-0.1-0.2,0-0.3,0-0.5c0-0.3,0-0.5,0-0.8
		c0-0.3-0.2-0.5-0.2-0.8c0-0.1-0.1-0.1-0.1,0c0,0.3,0.1,0.5,0.2,0.8c0.1,0.3,0,0.6,0,1C91.5,23.6,91.9,24.1,92.2,24.3
		C92.2,24.5,92.2,24.4,92.2,24.3L92.2,24.3L92.2,24.3z"/>
        <path class="st6" d="M92.7,26.3c0.1-0.1,0.1-0.1,0.2-0.2c0.1-0.1,0.1-0.3,0.2-0.4c0.1-0.3,0.3-0.5,0.5-0.7c0,0,0-0.1,0-0.1
		c-0.2,0.1-0.3,0.3-0.5,0.6c-0.1,0.1-0.1,0.2-0.2,0.3C92.9,25.9,92.8,26.1,92.7,26.3C92.7,26.2,92.7,26.3,92.7,26.3L92.7,26.3
		L92.7,26.3z"/>
        <path class="st6" d="M86.2,23.9c0.2,0,0.5-0.1,0.7-0.2c0.2-0.1,0.4-0.3,0.7-0.5c0.5-0.4,1.1-0.3,1.7-0.3c0,0,0-0.1,0-0.1
		c-0.3,0-0.6,0-0.9,0c-0.2,0-0.5,0.1-0.7,0.2c-0.2,0.2-0.4,0.4-0.7,0.6C86.7,23.7,86.4,23.8,86.2,23.9
		C86.1,23.8,86.1,23.9,86.2,23.9L86.2,23.9L86.2,23.9z"/>
        <path class="st6" d="M90.3,23.4c-0.3-0.7-0.8-1.1-0.9-1.9c-0.1-0.8,0-1.7-0.3-2.3c0,0-0.1,0,0,0.1c0.4,0.7,0.1,1.7,0.3,2.5
		C89.5,22.5,90,22.8,90.3,23.4C90.2,23.5,90.3,23.5,90.3,23.4L90.3,23.4L90.3,23.4z"/>
        <path class="st6"
              d="M85,19c0.3,0.2,0.7,0.5,1,0.5c0,0,0-0.1,0-0.1C85.7,19.4,85.4,19.1,85,19C85,18.9,85,19,85,19L85,19L85,19z"/>
        <path class="st6" d="M85.4,21.1c0.3,0.1,0.7,0.2,1,0.2c0.3,0,0.7,0,1-0.1c0,0,0-0.1,0-0.1c-0.3,0.1-0.7,0.2-1,0.1
		C86.1,21.2,85.8,21,85.4,21.1C85.4,21,85.4,21,85.4,21.1L85.4,21.1L85.4,21.1z"/>
        <path class="st6" d="M87.7,21.3c0-0.7,0-1.3-0.2-1.9c-0.1-0.3-0.2-0.5-0.4-0.8C87,18.3,87,17.9,87,17.6c0-0.1-0.1-0.1-0.1,0
		c0,0.3,0,0.7,0.1,1c0.1,0.3,0.2,0.5,0.3,0.7c0.1,0.3,0.2,0.6,0.3,0.9C87.6,20.5,87.6,20.9,87.7,21.3C87.6,21.4,87.7,21.4,87.7,21.3
		L87.7,21.3L87.7,21.3z"/>
        <path class="st6" d="M84.8,18c0.3,0.4,0.7,0.8,1,1.2c0.3,0.4,0.6,0.9,0.9,1.3c0.1,0.2,0.3,0.3,0.4,0.5c0.2,0.2,0.3,0.4,0.5,0.5
		c0.2,0.1,0.4,0.2,0.5,0.3c0.2,0.2,0.3,0.4,0.5,0.6c0,0.1,0.1,0,0.1-0.1c-0.1-0.2-0.3-0.4-0.4-0.6c-0.2-0.2-0.3-0.3-0.5-0.4
		c-0.2-0.1-0.4-0.3-0.5-0.5c-0.2-0.2-0.4-0.4-0.5-0.6c-0.3-0.4-0.6-0.9-0.9-1.2c-0.4-0.4-0.7-0.8-1.1-1.3C84.8,17.8,84.7,18,84.8,18
		L84.8,18L84.8,18z"/>
        <path class="st10"
              d="M84.4,17.4l-0.1,0.1l-0.1,0.7l0.1,0.3l0.4,0l0.1-0.1l0-0.2C84.9,18.3,84.5,18,84.4,17.4L84.4,17.4z"/>
        <polygon class="st9"
                 points="86.4,18.9 87.1,20 87.5,21.1 87.2,20.9 86.9,20.5 86.7,20.3 86.5,20 86.2,19.6 86.2,19 86.4,18.9 	"/>
        <path class="st6" d="M105.3,29.8c0.3,0,0.6-0.1,1-0.1c0.2,0,0.4,0,0.5,0.1c0.2,0.1,0.3,0.2,0.5,0.3c0.3,0.2,0.6,0.4,0.9,0.5
		c0.3,0.1,0.7,0.2,1,0.4c0.1,0,0.1,0,0.1-0.1c-0.3-0.2-0.7-0.2-1-0.4c-0.4-0.2-0.7-0.4-1-0.7c-0.6-0.4-1.4-0.3-1.9-0.2
		C105.2,29.8,105.3,29.9,105.3,29.8L105.3,29.8L105.3,29.8z"/>
        <path class="st6" d="M104.6,29.5c0,0.1,0,0.2,0,0.3c0,0.1,0.1,0.2,0.2,0.4c0.1,0.3,0.2,0.6,0.2,0.8c0,0,0.1,0.1,0.1,0
		c0-0.2,0-0.5-0.1-0.7c0-0.1-0.1-0.2-0.1-0.3C104.7,29.8,104.6,29.7,104.6,29.5C104.6,29.5,104.6,29.4,104.6,29.5L104.6,29.5
		L104.6,29.5z"/>
        <path class="st9" d="M102.6,31.6c0,0-0.1-0.4-0.6-0.2c-0.6,0.2-1.2-0.4-0.6-1.5c0.2-0.4,0.8-0.2,1-1.6c0.4-1.2,1.1-0.1,1.1,0.1
		c-0.1,0.3,0.7,0.6,0.6-0.3c-1.5-2.3,0.2-4.1,1.1-2.5c0.7,2.2,1,0.9,1,0.9s-0.4-2.2,0.2-3.3s1.9-1.1,2.2,0.3c0,1.1,0.4,1.2,0.8,1
		c0.4-0.2,0.6-2,0.9-2.5c0.2-1,2.4-1.3,2.4,0.4c-0.1,1.1,0.3,2.3,1,1.1c0.7-1.3,3.3-0.9,3-0.1c0,0.2-0.8,1,0.3,1
		c1.7-0.1,2.2,0.2,2.7,0.8c0.6,0.9-2,0.7-2,0.7l-5.7,2.3l-8,3.4L102.6,31.6L102.6,31.6z"/>
        <path class="st10" d="M103,31.8c0,0,0.2,0.2,0.2,0.4c-0.1,0.3,0.3,0.6,0.6,0.5c0.3-0.1,1-0.6,1.6-0.4c0.6,0.2,1.3,0.4,1.7,0.1
		c0.4-0.3-0.3-0.8-0.3-0.8s-0.5-0.6,0.4-0.3c0.9,0.3,0.6,0.4,1.6,0.7c1,0.3,1.5-0.2,1.6-0.3c0.1-0.1,0.3-0.6-0.6-1.2
		c-0.9-0.6,0.3-0.5,0.3-0.5l2.1,1.1c0,0,1.5,0.8,2.4,0.8c1,0,1.1-0.7,0.7-1.2c-0.4-0.6-2.2-1.2-0.8-1.5c0.8-0.2,2.1,0.9,2.4,0.9
		c0,0,2.8,0.6,2-1.4c-0.5-0.6-0.8-0.6-0.8-0.9c0-0.5,2.2-0.6,1.4-2.1c-0.9-1.5-1.3-0.1-1.3-0.1s-2.1,0.9-3.3,0.7
		C113.5,26,110,27,110,27s-2.7,0.7-4.3,2.2C104.2,30.8,103,31.8,103,31.8L103,31.8z"/>
        <path class="st6" d="M98.8,32.9c0,0,0.4,0.1,0.6,0.7c0.2,0.6,2.1-0.4,2.1-0.4s2.6-1.9,3.6-3c1-1,4.4-2.7,4.4-2.7s2-0.8,3.1-1.1
		c0.2-0.1,0.5-0.1,0.6-0.1c0.5,0,1.3,0,1.8-0.2c0.4-0.2,0.9,0,1.2-0.1c0.1,0,0.3-0.1,0.4-0.1c0.8-0.3,2.1-0.3,2.1-0.3l-7,1.1
		c0,0-1.3,0.1-1.5,0.3c-0.3,0.2-1.6,0.5-2.1,0.8c-0.5,0.3-1.9,1.1-1.9,1.1l-1.4,1l-1.9,1.6l-0.9,0.7c0,0-0.4,0.4-0.7,0.4
		C100.8,32.8,99,33.3,98.8,32.9L98.8,32.9z"/>
        <path class="st6" d="M107.3,23.6c-0.4,0.6-0.4,1.4-0.1,2.2c0.2,0.5,0.4,0.9,0.4,1.3c0,0.2,0,0.4,0,0.6c-0.1,0.2-0.2,0.4-0.3,0.6
		c0,0,0.1,0.1,0.1,0.1c0.2-0.3,0.4-0.6,0.4-0.9c0-0.4,0-0.8-0.2-1.1c-0.2-0.4-0.4-0.9-0.4-1.3C107.1,24.5,107.2,24.1,107.3,23.6
		C107.4,23.6,107.3,23.6,107.3,23.6L107.3,23.6L107.3,23.6z"/>
        <path class="st6" d="M104.4,26.6c0,0.3,0,0.5,0.1,0.8c0.1,0.3,0.2,0.5,0.4,0.8c0.1,0.3,0.2,0.7,0.2,1c0,0.3-0.1,0.6-0.3,0.9
		c0,0.1,0.1,0.1,0.1,0.1c0.1-0.2,0.3-0.5,0.3-0.7c0-0.3,0-0.5-0.1-0.8c0-0.1-0.1-0.3-0.2-0.4c-0.1-0.2-0.2-0.3-0.2-0.5
		c-0.1-0.3-0.2-0.7-0.1-1C104.5,26.6,104.4,26.6,104.4,26.6L104.4,26.6L104.4,26.6z"/>
        <path class="st6" d="M111.2,22.8c-0.2,0.3-0.4,0.6-0.4,1c-0.1,0.4-0.1,0.8,0,1.2c0,0.9-0.7,1.6-1.2,2.2c0,0,0.1,0.1,0.1,0.1
		c0.3-0.3,0.5-0.7,0.8-1c0.2-0.3,0.4-0.6,0.4-1c0.1-0.4,0-0.8,0-1.2C110.9,23.7,111,23.3,111.2,22.8
		C111.3,22.9,111.2,22.8,111.2,22.8L111.2,22.8L111.2,22.8z"/>
        <path class="st6" d="M108,28.2c0.9,0.2,1.8-0.1,2.7,0.3c0.9,0.4,1.7,1.3,2.7,1.3c0.1,0,0-0.1,0-0.1c-1-0.1-1.8-1.1-2.8-1.4
		c-0.9-0.3-1.7,0-2.5-0.2C107.9,28.1,107.9,28.2,108,28.2L108,28.2L108,28.2z"/>
        <path class="st6" d="M117.2,25.1c-0.5,0.3-1.1,0.5-1.4,0.9c0,0.1,0.1,0.1,0.1,0.1C116.2,25.6,116.8,25.4,117.2,25.1
		C117.3,25.1,117.3,25,117.2,25.1L117.2,25.1L117.2,25.1z"/>
        <path class="st6" d="M114.8,24c-0.4,0.3-0.8,0.7-1.1,1.1c-0.3,0.4-0.6,0.8-0.8,1.3c0,0.1,0.1,0.1,0.1,0.1c0.2-0.5,0.4-0.9,0.8-1.3
		C114.1,24.8,114.5,24.5,114.8,24C114.9,24.1,114.8,24,114.8,24L114.8,24L114.8,24z"/>
        <path class="st6" d="M112.5,26.6c0.7,0.5,1.3,0.9,2.1,1.1c0.4,0.1,0.7,0.1,1.1,0.1c0.4,0.1,0.9,0.4,1.2,0.7c0.1,0,0.1,0,0.1-0.1
		c-0.3-0.3-0.7-0.5-1.1-0.7c-0.3-0.1-0.7-0.1-1-0.2c-0.4,0-0.8-0.1-1.2-0.3C113.3,27.1,112.9,26.8,112.5,26.6
		C112.5,26.5,112.4,26.6,112.5,26.6L112.5,26.6L112.5,26.6z"/>
        <path class="st6" d="M118.5,25.5c-0.7,0.1-1.4,0.2-2.2,0.4c-0.7,0.1-1.5,0.1-2.2,0.2c-0.3,0-0.6,0.1-0.9,0.2
		c-0.3,0.1-0.7,0.1-1,0.3c-0.3,0.1-0.5,0.3-0.8,0.4c-0.3,0.1-0.7,0.1-1,0.1c-0.1,0-0.1,0.2,0,0.2c0.3,0,0.6,0,0.9-0.1
		c0.3-0.1,0.6-0.2,0.8-0.4c0.3-0.2,0.6-0.2,1-0.3c0.4-0.1,0.7-0.2,1.1-0.2c0.7-0.1,1.4-0.1,2.1-0.2c0.7-0.1,1.5-0.2,2.2-0.4
		C118.6,25.6,118.5,25.5,118.5,25.5L118.5,25.5L118.5,25.5z"/>
        <path class="st9" d="M119.4,25.5l0-0.2l-0.6-0.6l-0.5-0.1l-0.3,0.4l-0.1,0.2l0.2,0.1C118.1,25.5,118.7,25.2,119.4,25.5L119.4,25.5z
		"/>
        <polygon class="st10" points="116.1,26.8 114.3,26.8 112.9,26.6 113.4,26.3 114,26.3 114.4,26.2 115,26.1 115.6,26.1 116.1,26.6
		116.1,26.8 	"/>
        <path class="st10" d="M102.8,25.2c0,0,0.2,0.2-0.1,0.5c-0.3,0.3-0.3,1,0.6,1.1c0.3,0.1,0.5-0.4,1.3,0.2c0.8,0.3,0.5-0.6,0.3-0.7
		c-0.2-0.1-0.1-0.8,0.4-0.2c0.7,2,2.3,1.8,1.8,0.5c-0.9-1.5-0.1-1.1-0.1-1.1s1,1.3,1.8,1.5c0.8,0.2,1.3-0.7,0.7-1.5
		c-0.6-0.5-0.5-0.8-0.2-1c0.2-0.2,1.3,0.6,1.7,0.6c0.6,0.3,1.6-0.9,0.7-1.7c-0.6-0.4-1.1-1.3-0.2-1.1c1,0.1,1.8-1.7,1.2-1.9
		c-0.1-0.1-0.8,0.1-0.4-0.6c0.7-1.1,0.8-1.5,0.6-2.1c-0.3-0.8-1.2,1-1.2,1l-3.4,2.6l-4.9,3.5L102.8,25.2L102.8,25.2z"/>
        <path class="st9" d="M102.9,24.9c0,0,0-0.2-0.2-0.3c-0.2-0.1-0.2-0.5,0-0.6c0.2-0.1,0.7-0.3,0.8-0.8c0.1-0.5,0.3-1,0.6-1.1
		c0.3-0.1,0.3,0.6,0.3,0.6s0.1,0.6,0.3-0.1c0.2-0.7,0-0.6,0.2-1.4c0.2-0.8,0.7-0.9,0.8-0.9c0.1,0,0.4,0.1,0.4,0.9c0,0.9,0.4,0,0.4,0
		l0.2-1.8c0,0,0.1-1.3,0.5-1.9c0.4-0.6,0.8-0.4,0.9,0.1c0.2,0.5-0.2,2,0.5,1.3c0.4-0.5,0.3-1.8,0.5-1.9c0,0,0.8-2.1,1.5-0.6
		c0.1,0.6,0,0.8,0.2,1c0.3,0.2,1.2-1.1,1.6,0.1c0.5,1.2-0.5,0.9-0.5,0.9s-1.3,0.9-1.7,1.8c-0.4,0.9-2.3,2.6-2.3,2.6
		s-1.4,1.4-2.8,1.7C103.9,24.6,102.9,24.9,102.9,24.9L102.9,24.9z"/>
        <path class="st6" d="M100.7,27.1c0,0,0.1-0.3-0.1-0.7c-0.2-0.4,1-1.2,1-1.2s2-0.7,3-0.9c0.9-0.2,3.1-1.5,3.1-1.5s1.2-0.9,1.8-1.5
		c0.1-0.1,0.2-0.2,0.3-0.3c0.2-0.3,0.5-0.8,0.8-1.1c0.3-0.2,0.4-0.6,0.5-0.7c0.1,0,0.1-0.1,0.2-0.2c0.4-0.4,1-1.2,1-1.2l-3.3,4
		c0,0-0.6,0.7-0.7,0.8c-0.2,0.1-0.9,0.8-1.2,1c-0.4,0.2-1.4,0.7-1.4,0.7l-1.1,0.4l-1.6,0.4l-0.7,0.3c0,0-0.4,0.1-0.5,0.3
		C101.5,25.9,100.5,26.8,100.7,27.1L100.7,27.1z"/>
        <path class="st6" d="M109,26c-0.5,0-0.9-0.4-1.2-1c-0.2-0.3-0.3-0.6-0.6-0.9c-0.1-0.1-0.2-0.2-0.4-0.3c-0.1-0.1-0.3-0.1-0.4-0.1
		c0,0,0-0.1,0-0.1c0.2,0,0.5,0,0.7,0.2c0.2,0.2,0.4,0.4,0.5,0.7c0.2,0.3,0.3,0.6,0.5,0.9C108.4,25.8,108.7,25.9,109,26
		C109,25.9,109,26,109,26L109,26L109,26z"/>
        <path class="st6" d="M106.2,26.5c-0.1-0.1-0.3-0.2-0.4-0.4c-0.1-0.2-0.2-0.4-0.3-0.6c-0.1-0.2-0.3-0.5-0.4-0.6
		c-0.2-0.2-0.4-0.2-0.6-0.2c0,0,0-0.1,0-0.1c0.2,0,0.3,0.1,0.5,0.2c0.2,0.1,0.3,0.3,0.4,0.5c0.1,0.1,0.1,0.2,0.2,0.3
		c0.1,0.1,0.1,0.3,0.2,0.4C105.9,26.1,106,26.3,106.2,26.5C106.3,26.4,106.2,26.5,106.2,26.5L106.2,26.5L106.2,26.5z"/>
        <path class="st6" d="M104.9,24.4c0.1-0.2,0.3-0.4,0.4-0.6c0.1-0.1,0.1-0.2,0.2-0.4c0.1-0.2,0-0.3,0-0.5c0-0.3,0-0.5,0-0.8
		c0-0.3,0.2-0.5,0.2-0.8c0-0.1,0.1-0.1,0.1,0c0,0.3-0.1,0.5-0.2,0.8c-0.1,0.3,0,0.6,0,1C105.5,23.7,105.2,24.1,104.9,24.4
		C104.9,24.5,104.8,24.4,104.9,24.4L104.9,24.4L104.9,24.4z"/>
        <path class="st6" d="M104.3,26.3c-0.1-0.1-0.1-0.1-0.2-0.2c-0.1-0.1-0.1-0.3-0.2-0.4c-0.1-0.3-0.3-0.5-0.5-0.7c0,0,0-0.1,0-0.1
		c0.2,0.1,0.3,0.3,0.5,0.6c0.1,0.1,0.1,0.2,0.2,0.3C104.1,26,104.2,26.1,104.3,26.3C104.4,26.2,104.3,26.3,104.3,26.3L104.3,26.3
		L104.3,26.3z"/>
        <path class="st6" d="M110.9,23.9c-0.2,0-0.5-0.1-0.7-0.2c-0.2-0.1-0.4-0.3-0.7-0.5c-0.5-0.4-1.1-0.3-1.7-0.3c0,0,0-0.1,0-0.1
		c0.3,0,0.6,0,0.9,0c0.2,0,0.5,0.1,0.7,0.2c0.2,0.2,0.4,0.4,0.7,0.6C110.3,23.7,110.6,23.8,110.9,23.9
		C110.9,23.8,110.9,23.9,110.9,23.9L110.9,23.9L110.9,23.9z"/>
        <path class="st6" d="M106.8,23.4c0.3-0.7,0.8-1.1,0.9-1.9c0.1-0.8,0-1.7,0.3-2.3c0,0,0.1,0,0,0.1c-0.4,0.7-0.1,1.7-0.3,2.5
		C107.5,22.5,107.1,22.9,106.8,23.4C106.8,23.5,106.7,23.5,106.8,23.4L106.8,23.4L106.8,23.4z"/>
        <path class="st6" d="M112,19c-0.3,0.2-0.7,0.5-1,0.5c0,0,0-0.1,0-0.1C111.3,19.4,111.7,19.1,112,19C112.1,18.9,112.1,19,112,19
		L112,19L112,19z"/>
        <path class="st6" d="M111.6,21.1c-0.3,0.1-0.7,0.2-1,0.2c-0.3,0-0.7,0-1-0.1c0,0,0-0.1,0-0.1c0.3,0.1,0.7,0.2,1,0.1
		C111,21.2,111.3,21.1,111.6,21.1C111.7,21,111.7,21.1,111.6,21.1L111.6,21.1L111.6,21.1z"/>
        <path class="st6" d="M109.3,21.3c0-0.7,0-1.3,0.2-1.9c0.1-0.3,0.2-0.5,0.4-0.8c0.1-0.3,0.1-0.7,0.1-1.1c0-0.1,0.1-0.1,0.1,0
		c0,0.3,0,0.7-0.1,1c-0.1,0.3-0.2,0.5-0.3,0.7c-0.1,0.3-0.2,0.6-0.3,0.9C109.4,20.6,109.4,20.9,109.3,21.3
		C109.4,21.4,109.3,21.4,109.3,21.3L109.3,21.3L109.3,21.3z"/>
        <path class="st6" d="M112.3,18c-0.3,0.4-0.7,0.8-1,1.2c-0.3,0.4-0.6,0.9-0.9,1.3c-0.1,0.2-0.3,0.3-0.4,0.5
		c-0.2,0.2-0.3,0.4-0.5,0.5c-0.2,0.1-0.4,0.2-0.5,0.3c-0.2,0.2-0.3,0.4-0.5,0.6c0,0.1-0.1,0-0.1-0.1c0.1-0.2,0.3-0.4,0.4-0.6
		c0.2-0.2,0.3-0.3,0.5-0.4c0.2-0.1,0.4-0.3,0.5-0.5c0.2-0.2,0.4-0.4,0.5-0.6c0.3-0.4,0.6-0.9,0.9-1.2c0.4-0.4,0.7-0.8,1.1-1.3
		C112.3,17.9,112.3,18,112.3,18L112.3,18L112.3,18z"/>
        <path class="st10"
              d="M112.6,17.4l0.1,0.1l0.1,0.7l-0.1,0.3l-0.4,0l-0.1-0.1l0-0.2C112.2,18.3,112.5,18,112.6,17.4L112.6,17.4z"/>
        <polygon class="st9" points="110.7,18.9 110,20.1 109.6,21.1 109.9,20.9 110.2,20.5 110.4,20.3 110.6,20 110.8,19.6 110.8,19
		110.7,18.9 	"/>
        <path class="st7" d="M96.7,25.5c0.3,0,0.6,0.1,0.9,0.1c0.3,0,0.6,0.1,0.9,0c0.6,0,1.1-0.3,1.7-0.3c0.3,0,0.6,0,0.8,0.2
		c0.1,0.1,0.2-0.1,0.1-0.2c-0.5-0.3-1.1-0.2-1.6-0.1c-0.3,0.1-0.6,0.2-0.9,0.2c-0.3,0-0.6,0-0.9,0c-0.4,0-0.7-0.1-1.1-0.1
		c-0.1,0-0.1,0.1-0.1,0.1C96.6,25.4,96.6,25.5,96.7,25.5L96.7,25.5L96.7,25.5z"/>
        <path d="M98.7,19.9h-8.4l0.6,11.8c0,0,0.6,6.4,7.8,7c7.2-0.6,7.8-7,7.8-7l0.6-11.8H98.7L98.7,19.9z"/>
        <path class="st11"
              d="M98.7,21h-7.4l0.5,10.4c0,0,0.6,5.7,6.9,6.2c6.3-0.5,6.9-6.2,6.9-6.2l0.5-10.4H98.7L98.7,21z"/>
        <path class="st12" d="M98.7,19.9h-8.4l0.6,11.8c0,0,0.6,6.4,7.8,7c7.2-0.6,7.8-7,7.8-7l0.6-11.8H98.7L98.7,19.9z"/>
        <path class="st13" d="M102.5,35.2h-0.8c0,0-0.1,0-0.1-0.1V24.9c0,0,0-0.1,0.1-0.1h0.8c0,0,0.1,0,0.1,0.1L102.5,35.2
		C102.6,35.1,102.6,35.2,102.5,35.2L102.5,35.2z"/>
        <path class="st14" d="M102.5,35.2h-0.8c0,0-0.1,0-0.1-0.1V24.9c0,0,0-0.1,0.1-0.1h0.8c0,0,0.1,0,0.1,0.1L102.5,35.2
		C102.6,35.1,102.6,35.2,102.5,35.2L102.5,35.2z"/>
        <path class="st15" d="M102.6,22.7l-0.5-0.9l-0.5,0.9h0.1c0,0.1-0.1,0.1-0.1,0.2v1.5c0,0.2,0.2,0.4,0.4,0.4h0.2
		c0.2,0,0.4-0.2,0.4-0.4v-1.5C102.6,22.9,102.6,22.8,102.6,22.7L102.6,22.7L102.6,22.7z"/>
        <path class="st16" d="M102.6,22.7l-0.5-0.9l-0.5,0.9h0.1c0,0.1-0.1,0.1-0.1,0.2v1.5c0,0.2,0.2,0.4,0.4,0.4h0.2
		c0.2,0,0.4-0.2,0.4-0.4v-1.5C102.6,22.9,102.6,22.8,102.6,22.7L102.6,22.7L102.6,22.7z"/>
        <path class="st7" d="M102.6,27.7v-4.1c0,0-1-2.2-4.6-0.4c-2.6,0.5-3.2-0.6-3.2-0.6v5.1l0,0v3.5c0,0,1,1.9,4.6,0.3
		c2.6-0.5,3.2,0.5,3.2,0.5V27.7L102.6,27.7L102.6,27.7z"/>
        <path class="st4" d="M102.6,27.7v-4.1c0,0-1-2.2-4.6-0.4c-2.6,0.5-3.2-0.6-3.2-0.6v5.1l0,0v3.5c0,0,1,1.9,4.6,0.3
		c2.6-0.5,3.2,0.5,3.2,0.5V27.7L102.6,27.7L102.6,27.7z"/>
        <path class="st17" d="M99.3,24.4c0.8-0.5,1.9-0.4,2.6,0.3 M99.3,26.2c0.8-0.5,1.9-0.4,2.6,0.3 M99.3,28c0.8-0.5,1.9-0.4,2.6,0.3
		 M99.3,29.9c0.8-0.5,1.9-0.4,2.6,0.3 M95.6,30.4c0.8,0.5,1.9,0.4,2.6-0.3 M95.6,28.6c0.8,0.5,1.9,0.4,2.6-0.3 M95.6,26.8
		c0.8,0.5,1.9,0.4,2.6-0.3 M95.6,25c0.8,0.5,1.9,0.4,2.6-0.3"/>
        <path class="st7" d="M96.7,25.4c0.3,0,0.6,0.1,0.9,0.1c0.3,0,0.6,0.1,0.9,0c0.6,0,1.1-0.3,1.7-0.3c0.3,0,0.6,0,0.8,0.2
		c0.1,0.1,0.2-0.1,0.1-0.2c-0.5-0.3-1.1-0.2-1.6-0.1c-0.3,0.1-0.6,0.2-0.9,0.2c-0.3,0-0.6,0-0.9,0c-0.4,0-0.7-0.1-1.1-0.1
		c-0.1,0-0.1,0.1-0.1,0.1C96.6,25.4,96.6,25.4,96.7,25.4L96.7,25.4L96.7,25.4z"/>
        <path class="st0" d="M98.7,19.9h-8.4l0.6,11.8c0,0,0.6,6.4,7.8,7c7.2-0.6,7.8-7,7.8-7l0.6-11.8H98.7L98.7,19.9z"/>
        <path class="st18"
              d="M98.7,21h-7.4l0.5,10.4c0,0,0.6,5.7,6.9,6.2c6.3-0.5,6.9-6.2,6.9-6.2l0.5-10.4H98.7L98.7,21z"/>
        <path class="st19" d="M98.7,19.9h-8.4l0.6,11.8c0,0,0.6,6.4,7.8,7c7.2-0.6,7.8-7,7.8-7l0.6-11.8H98.7L98.7,19.9z"/>
        <path class="st20" d="M102.5,35.1h-0.8c0,0-0.1,0-0.1-0.1V24.8c0,0,0-0.1,0.1-0.1h0.8c0,0,0.1,0,0.1,0.1L102.5,35.1
		C102.6,35.1,102.6,35.1,102.5,35.1L102.5,35.1z"/>
        <path class="st14" d="M102.5,35.1h-0.8c0,0-0.1,0-0.1-0.1V24.8c0,0,0-0.1,0.1-0.1h0.8c0,0,0.1,0,0.1,0.1L102.5,35.1
		C102.6,35.1,102.6,35.1,102.5,35.1L102.5,35.1z"/>
        <path class="st21" d="M102.6,22.7l-0.5-0.9l-0.5,0.9h0.1c0,0.1-0.1,0.1-0.1,0.2v1.5c0,0.2,0.2,0.4,0.4,0.4h0.2
		c0.2,0,0.4-0.2,0.4-0.4v-1.5C102.6,22.8,102.6,22.8,102.6,22.7L102.6,22.7L102.6,22.7z"/>
        <path class="st16" d="M102.6,22.7l-0.5-0.9l-0.5,0.9h0.1c0,0.1-0.1,0.1-0.1,0.2v1.5c0,0.2,0.2,0.4,0.4,0.4h0.2
		c0.2,0,0.4-0.2,0.4-0.4v-1.5C102.6,22.8,102.6,22.8,102.6,22.7L102.6,22.7L102.6,22.7z"/>
        <path class="st21" d="M102.6,27.7v-4.1c0,0-1-2.2-4.6-0.4c-2.6,0.5-3.2-0.6-3.2-0.6v5.1l0,0v3.5c0,0,1,1.9,4.6,0.3
		c2.6-0.5,3.2,0.5,3.2,0.5V27.7L102.6,27.7L102.6,27.7z"/>
        <path class="st4" d="M102.6,27.7v-4.1c0,0-1-2.2-4.6-0.4c-2.6,0.5-3.2-0.6-3.2-0.6v5.1l0,0v3.5c0,0,1,1.9,4.6,0.3
		c2.6-0.5,3.2,0.5,3.2,0.5V27.7L102.6,27.7L102.6,27.7z"/>
        <path class="st17" d="M99.3,24.3c0.8-0.5,1.9-0.4,2.6,0.3 M99.3,26.2c0.8-0.5,1.9-0.4,2.6,0.3 M99.3,28c0.8-0.5,1.9-0.4,2.6,0.3
		 M99.3,29.8c0.8-0.5,1.9-0.4,2.6,0.3 M95.6,30.4c0.8,0.5,1.9,0.4,2.6-0.3 M95.6,28.6c0.8,0.5,1.9,0.4,2.6-0.3 M95.6,26.7
		c0.8,0.5,1.9,0.4,2.6-0.3 M95.6,24.9c0.8,0.5,1.9,0.4,2.6-0.3"/>
        <path class="st8" d="M129,18.4h0.2c0.2,0,0.3,0,0.4-0.1c0.1,0,0.3-0.1,0.4-0.3s0.4-0.4,0.7-0.7c0.4-0.4,0.7-0.7,0.8-0.9
		c0.2-0.2,0.3-0.4,0.4-0.6c0-0.1,0.1-0.2,0.1-0.3c0-0.2,0-0.3-0.1-0.4c-0.1-0.1-0.2-0.1-0.4-0.1v-0.3h2.7v0.3
		c-0.1,0-0.3,0.1-0.4,0.1c-0.1,0.1-0.3,0.2-0.4,0.3c-0.1,0.1-0.3,0.3-0.6,0.6l-2,2.3l2.2,3.2c0.2,0.3,0.4,0.6,0.6,0.7
		c0.1,0.1,0.3,0.2,0.4,0.3c0.1,0.1,0.3,0.1,0.4,0.1v0.3h-2.7v-0.3c0.2,0,0.3,0,0.3-0.1c0.1,0,0.1-0.1,0.1-0.2c0-0.1,0-0.2-0.1-0.3
		c0-0.1-0.1-0.2-0.2-0.4l-1.4-2.1c-0.2-0.3-0.3-0.4-0.4-0.5c-0.1-0.1-0.2-0.1-0.2-0.2c-0.1,0-0.2-0.1-0.4-0.1H129v2.6
		c0,0.3,0,0.5,0,0.6c0,0.1,0,0.2,0.1,0.3c0,0.1,0.1,0.1,0.2,0.2c0.1,0,0.2,0.1,0.4,0.1v0.3h-2.6v-0.3c0.3-0.1,0.4-0.1,0.5-0.2
		c0.1-0.1,0.1-0.2,0.2-0.3c0-0.1,0-0.4,0-0.7v-5.3c0-0.3,0-0.5,0-0.6c0-0.1-0.1-0.2-0.1-0.3c0-0.1-0.1-0.1-0.2-0.2
		c-0.1,0-0.2-0.1-0.4-0.1v-0.3h2.6v0.3c-0.2,0-0.3,0.1-0.4,0.1c-0.1,0-0.1,0.1-0.2,0.2c0,0.1-0.1,0.2-0.1,0.3c0,0.1,0,0.3,0,0.6
		L129,18.4L129,18.4z"/>
        <path class="st8" d="M137.1,18.4h0.2c0.2,0,0.3,0,0.4-0.1c0.1,0,0.3-0.1,0.4-0.3c0.2-0.1,0.4-0.4,0.7-0.7c0.4-0.4,0.7-0.7,0.8-0.9
		c0.2-0.2,0.3-0.4,0.4-0.6c0-0.1,0.1-0.2,0.1-0.3c0-0.2,0-0.3-0.1-0.4c-0.1-0.1-0.2-0.1-0.4-0.1v-0.3h2.7v0.3
		c-0.1,0-0.3,0.1-0.4,0.1c-0.1,0.1-0.3,0.2-0.4,0.3c-0.1,0.1-0.3,0.3-0.6,0.6l-2,2.3l2.2,3.2c0.2,0.3,0.4,0.6,0.6,0.7
		c0.1,0.1,0.3,0.2,0.4,0.3c0.1,0.1,0.3,0.1,0.4,0.1v0.3h-2.7v-0.3c0.2,0,0.3,0,0.3-0.1c0.1,0,0.1-0.1,0.1-0.2c0-0.1,0-0.2-0.1-0.3
		c0-0.1-0.1-0.2-0.2-0.4l-1.4-2.1c-0.2-0.3-0.3-0.4-0.4-0.5c-0.1-0.1-0.2-0.1-0.2-0.2c-0.1,0-0.2-0.1-0.4-0.1h-0.3v2.6
		c0,0.3,0,0.5,0,0.6c0,0.1,0,0.2,0.1,0.3c0,0.1,0.1,0.1,0.2,0.2c0.1,0,0.2,0.1,0.4,0.1v0.3h-2.6v-0.3c0.3-0.1,0.4-0.1,0.5-0.2
		c0.1-0.1,0.1-0.2,0.2-0.3c0-0.1,0-0.4,0-0.7v-5.3c0-0.3,0-0.5,0-0.6c0-0.1-0.1-0.2-0.1-0.3c0-0.1-0.1-0.1-0.2-0.2
		c-0.1,0-0.2-0.1-0.4-0.1v-0.3h2.6v0.3c-0.2,0-0.3,0.1-0.4,0.1c-0.1,0-0.1,0.1-0.2,0.2c0,0.1-0.1,0.2-0.1,0.3c0,0.1,0,0.3,0,0.6
		L137.1,18.4L137.1,18.4z"/>
        <polygon class="st8" points="145.8,20.2 143,20.2 143,19.2 145.8,19.2 145.8,20.2 	"/>
        <path class="st8" d="M147.7,21c0.1,0.4,0.2,0.6,0.3,0.8c0.1,0.2,0.3,0.4,0.5,0.5c0.2,0.1,0.5,0.1,0.8,0.1c0.5,0,0.8-0.1,1.1-0.4
		c0.3-0.2,0.4-0.6,0.4-1.1c0-0.3-0.1-0.6-0.2-0.8c-0.1-0.2-0.3-0.4-0.5-0.6s-0.6-0.4-1.1-0.6c-0.5-0.2-0.8-0.5-1.1-0.7
		c-0.3-0.2-0.5-0.5-0.6-0.7c-0.1-0.3-0.2-0.6-0.2-0.9c0-0.5,0.1-0.8,0.3-1.2c0.2-0.3,0.5-0.6,0.9-0.8c0.4-0.2,0.9-0.3,1.4-0.3
		c0.3,0,0.6,0,0.9,0c0.3,0,0.7,0.1,1.1,0.2v1.6h-0.6c-0.1-0.4-0.2-0.6-0.4-0.8c-0.1-0.2-0.3-0.3-0.5-0.4c-0.2-0.1-0.4-0.1-0.7-0.1
		c-0.3,0-0.5,0-0.7,0.1c-0.2,0.1-0.4,0.2-0.5,0.4c-0.1,0.2-0.2,0.4-0.2,0.7c0,0.3,0.1,0.5,0.2,0.7s0.3,0.4,0.5,0.6
		c0.2,0.2,0.5,0.4,1,0.6c0.5,0.3,0.9,0.5,1.2,0.7c0.3,0.2,0.5,0.5,0.7,0.8c0.2,0.3,0.2,0.6,0.2,1c0,0.4-0.1,0.8-0.2,1.1
		c-0.1,0.3-0.3,0.5-0.6,0.7c-0.2,0.2-0.5,0.3-0.9,0.4c-0.3,0.1-0.7,0.1-1.1,0.1c-0.6,0-1.4-0.1-2.2-0.3V21H147.7L147.7,21z"/>
        <path class="st8" d="M159.2,14.8v1.7h-0.6c-0.1-0.4-0.2-0.6-0.4-0.8c-0.2-0.2-0.3-0.4-0.5-0.4c-0.2-0.1-0.4-0.1-0.7-0.1
		c-0.4,0-0.8,0.1-1.1,0.4c-0.3,0.3-0.6,0.7-0.8,1.3c-0.2,0.6-0.3,1.2-0.3,2c0,0.8,0.1,1.5,0.2,2c0.2,0.6,0.4,1,0.7,1.3
		s0.7,0.4,1.1,0.4c0.3,0,0.6,0,0.8-0.1c0.2-0.1,0.4-0.2,0.5-0.5c0.1-0.2,0.3-0.5,0.4-0.9h0.6v1.7c-0.4,0.1-0.8,0.2-1.2,0.2
		c-0.4,0.1-0.8,0.1-1.3,0.1c-1,0-1.8-0.3-2.3-1c-0.5-0.7-0.8-1.7-0.8-3.1c0-0.9,0.1-1.6,0.4-2.3c0.3-0.7,0.7-1.2,1.2-1.5
		c0.5-0.4,1.2-0.5,1.9-0.5c0.4,0,0.7,0,1,0.1C158.5,14.6,158.8,14.7,159.2,14.8L159.2,14.8z"/>
        <path class="st8" d="M167.3,21.4c0,0.2,0,0.4,0,0.5c0,0.1,0,0.2,0.1,0.3c0,0.1,0.1,0.1,0.1,0.2c0,0,0.1,0.1,0.2,0.1
		c0.1,0,0.2,0.1,0.3,0.1v0.3h-2.6v-0.3c0.2-0.1,0.4-0.1,0.5-0.2c0.1-0.1,0.2-0.2,0.2-0.3c0-0.1,0.1-0.4,0.1-0.7v-2.6h-3.4v2.6
		c0,0.3,0,0.5,0,0.6c0,0.1,0,0.2,0.1,0.3c0,0.1,0.1,0.1,0.2,0.2c0.1,0,0.2,0.1,0.4,0.1v0.3h-2.6v-0.3c0.3-0.1,0.4-0.1,0.5-0.2
		c0.1-0.1,0.1-0.2,0.2-0.3c0-0.1,0-0.4,0-0.7v-5.3c0-0.3,0-0.5,0-0.6c0-0.1-0.1-0.2-0.1-0.3c0-0.1-0.1-0.1-0.2-0.2
		c-0.1,0-0.2-0.1-0.4-0.1v-0.3h2.6v0.3c-0.2,0-0.3,0.1-0.4,0.1c-0.1,0-0.1,0.1-0.2,0.2c0,0.1-0.1,0.2-0.1,0.3c0,0.1,0,0.3,0,0.6v2.2
		h3.4v-2.2c0-0.4,0-0.6-0.1-0.7c0-0.1-0.1-0.2-0.2-0.3c-0.1-0.1-0.2-0.1-0.5-0.2v-0.3h2.6v0.3c-0.2,0.1-0.4,0.1-0.5,0.2
		c-0.1,0.1-0.2,0.2-0.2,0.3c0,0.1,0,0.4,0,0.7V21.4L167.3,21.4z"/>
        <path class="st8" d="M174.9,12.6v1.1h-1v-1.1H174.9L174.9,12.6z M172.6,12.6v1.1h-1v-1.1H172.6L172.6,12.6z M175.9,20.1
		c0,0.4,0,0.8-0.1,1.1c-0.1,0.3-0.2,0.6-0.3,0.8c-0.1,0.2-0.3,0.4-0.5,0.5c-0.2,0.1-0.5,0.3-0.8,0.4c-0.3,0.1-0.7,0.1-1.1,0.1
		c-0.5,0-0.9-0.1-1.3-0.2c-0.4-0.1-0.6-0.3-0.9-0.5c-0.2-0.2-0.4-0.5-0.5-0.9c-0.1-0.3-0.2-0.8-0.2-1.3v-4c0-0.3,0-0.5,0-0.6
		c0-0.1,0-0.2-0.1-0.3c0-0.1-0.1-0.1-0.2-0.2c-0.1,0-0.2-0.1-0.4-0.1v-0.3h2.6v0.3c-0.2,0.1-0.4,0.1-0.5,0.2
		c-0.1,0.1-0.2,0.2-0.2,0.3c0,0.1,0,0.4,0,0.7v4.3c0,0.4,0,0.7,0.1,1c0.1,0.3,0.2,0.5,0.3,0.6c0.2,0.1,0.3,0.3,0.5,0.3
		s0.5,0.1,0.8,0.1c0.3,0,0.5,0,0.7-0.1c0.2-0.1,0.4-0.3,0.5-0.5c0.1-0.2,0.2-0.5,0.3-0.7c0.1-0.3,0.1-0.7,0.1-1.2v-3.8
		c0-0.4,0-0.6-0.1-0.7c0-0.1-0.1-0.2-0.2-0.3c-0.1-0.1-0.2-0.1-0.5-0.2v-0.3h2.4v0.3c-0.2,0.1-0.4,0.1-0.5,0.2
		c-0.1,0.1-0.1,0.2-0.2,0.3c0,0.1,0,0.4,0,0.7V20.1L175.9,20.1z"/>
        <path class="st8" d="M177.9,14.6h6.6v2.1h-0.6c-0.1-0.3-0.2-0.6-0.3-0.8c-0.1-0.2-0.2-0.4-0.3-0.5c-0.1-0.1-0.2-0.2-0.3-0.2
		c-0.1,0-0.3-0.1-0.5-0.1h-0.8v6.2c0,0.2,0,0.4,0,0.6c0,0.1,0.1,0.3,0.1,0.3c0.1,0.1,0.1,0.1,0.2,0.2c0.1,0,0.2,0.1,0.4,0.1v0.3
		h-2.8v-0.3c0.1,0,0.2-0.1,0.3-0.1c0.1,0,0.2-0.1,0.2-0.1c0.1,0,0.1-0.1,0.1-0.2c0-0.1,0.1-0.2,0.1-0.3c0-0.1,0-0.3,0-0.6v-6.2h-0.8
		c-0.2,0-0.3,0-0.5,0.1c-0.1,0-0.2,0.1-0.3,0.2c-0.1,0.1-0.2,0.3-0.3,0.5c-0.1,0.2-0.2,0.5-0.2,0.8h-0.6V14.6L177.9,14.6z"/>
        <path class="st8" d="M187.2,22.4h2.2c0.3,0,0.5,0,0.6-0.1c0.1-0.1,0.2-0.1,0.3-0.2c0.1-0.1,0.2-0.3,0.2-0.5
		c0.1-0.2,0.2-0.5,0.2-0.9h0.6v2.2h-5.6v-0.3l4.2-7.5h-2.2c-0.2,0-0.3,0-0.4,0c-0.1,0-0.2,0.1-0.2,0.1c-0.1,0.1-0.1,0.1-0.2,0.2
		c-0.1,0.1-0.1,0.3-0.2,0.4c-0.1,0.2-0.1,0.4-0.2,0.7h-0.6v-2.1h5.5v0.3L187.2,22.4L187.2,22.4z"/>
        <path class="st8" d="M198.6,14.6v1.8H198c-0.1-0.2-0.1-0.4-0.2-0.5c-0.1-0.2-0.1-0.3-0.2-0.4c-0.1-0.1-0.1-0.2-0.2-0.2
		c-0.1-0.1-0.2-0.1-0.3-0.1c-0.1,0-0.2,0-0.4,0h-1.9v3.2h1.3c0.2,0,0.3,0,0.4-0.1c0.1-0.1,0.2-0.1,0.3-0.3c0.1-0.1,0.1-0.3,0.2-0.6
		h0.6v2.3h-0.6c-0.1-0.2-0.1-0.4-0.2-0.6c-0.1-0.1-0.2-0.2-0.2-0.3c-0.1-0.1-0.2-0.1-0.4-0.1h-1.3v3.5h1.9c0.2,0,0.4,0,0.5-0.1
		c0.1,0,0.2-0.1,0.3-0.2c0.1-0.1,0.2-0.2,0.2-0.3c0.1-0.1,0.1-0.3,0.2-0.4c0-0.1,0.1-0.4,0.2-0.6h0.6l-0.1,2.1h-5.6v-0.3
		c0.3-0.1,0.4-0.1,0.5-0.2c0.1-0.1,0.1-0.2,0.2-0.3c0-0.1,0-0.4,0-0.7v-5.3c0-0.3,0-0.5,0-0.6c0-0.1-0.1-0.2-0.1-0.3
		c0-0.1-0.1-0.1-0.2-0.2c-0.1,0-0.2-0.1-0.4-0.1v-0.3H198.6L198.6,14.6z"/>
        <path class="st8" d="M205.3,19.6c0.1,0.2,0.3,0.5,0.4,0.6c0.1,0.2,0.2,0.4,0.3,0.6h0.1c0-0.2,0-0.7-0.1-1.5c0-0.7,0-1.4,0-2v-1.3
		c0-0.3,0-0.5,0-0.6c0-0.1,0-0.2-0.1-0.3c0-0.1-0.1-0.1-0.2-0.2c-0.1,0-0.2-0.1-0.4-0.1v-0.3h2.2v0.3c-0.2,0-0.3,0.1-0.4,0.1
		c-0.1,0-0.1,0.1-0.2,0.2c0,0.1-0.1,0.2-0.1,0.3c0,0.1,0,0.3,0,0.6V23H206l-3.4-5.7c-0.2-0.4-0.4-0.6-0.5-0.8
		c-0.1-0.2-0.2-0.3-0.2-0.5h-0.1c0,0.3,0,0.9,0.1,1.7c0,0.8,0,1.6,0,2.4v1.2c0,0.3,0,0.5,0,0.6c0,0.1,0,0.2,0.1,0.3
		c0,0.1,0.1,0.1,0.2,0.2s0.2,0.1,0.4,0.1v0.3h-2.2v-0.3c0.3-0.1,0.4-0.1,0.5-0.2c0.1-0.1,0.1-0.2,0.2-0.3c0-0.1,0-0.4,0-0.7v-5.3
		c0-0.3,0-0.5,0-0.6c0-0.1-0.1-0.2-0.1-0.3c0-0.1-0.1-0.1-0.2-0.2c-0.1,0-0.2-0.1-0.4-0.1v-0.3h1.9L205.3,19.6L205.3,19.6z"/>
        <path class="st8" d="M211.3,14.6v0.3c-0.2,0-0.3,0.1-0.4,0.1c-0.1,0-0.2,0.1-0.2,0.2c0,0.1-0.1,0.2-0.1,0.4c0,0.1,0,0.3,0,0.4
		c0,0.2,0.1,0.3,0.1,0.5l1.4,5l1.7-5c0-0.1,0-0.2,0.1-0.2c0-0.1,0-0.2,0.1-0.2c0-0.1,0-0.2,0-0.2c0-0.1,0-0.1,0-0.2
		c0-0.2-0.1-0.4-0.2-0.5c-0.1-0.1-0.3-0.2-0.6-0.2v-0.3h2.6v0.3c-0.2,0-0.3,0.1-0.4,0.2c-0.1,0.1-0.2,0.2-0.3,0.4
		c-0.1,0.2-0.2,0.4-0.4,0.8l-2.5,6.7h-0.8l-2.1-6.8c-0.1-0.4-0.2-0.6-0.3-0.8c-0.1-0.2-0.2-0.3-0.3-0.4c-0.1-0.1-0.2-0.1-0.4-0.2
		v-0.3H211.3L211.3,14.6z"/>
        <path class="st8" d="M222.7,14.6v1.8h-0.6c-0.1-0.2-0.1-0.4-0.2-0.5c-0.1-0.2-0.1-0.3-0.2-0.4c-0.1-0.1-0.1-0.2-0.2-0.2
		c-0.1-0.1-0.2-0.1-0.3-0.1c-0.1,0-0.2,0-0.4,0h-1.9v3.2h1.3c0.2,0,0.3,0,0.4-0.1c0.1-0.1,0.2-0.1,0.3-0.3c0.1-0.1,0.1-0.3,0.2-0.6
		h0.6v2.3h-0.6c-0.1-0.2-0.1-0.4-0.2-0.6c-0.1-0.1-0.2-0.2-0.2-0.3c-0.1-0.1-0.2-0.1-0.4-0.1h-1.3v3.5h1.9c0.2,0,0.4,0,0.5-0.1
		c0.1,0,0.2-0.1,0.3-0.2c0.1-0.1,0.2-0.2,0.2-0.3c0.1-0.1,0.1-0.3,0.2-0.4c0-0.1,0.1-0.4,0.2-0.6h0.6l-0.1,2.1H217v-0.3
		c0.3-0.1,0.4-0.1,0.5-0.2c0.1-0.1,0.1-0.2,0.2-0.3c0-0.1,0-0.4,0-0.7v-5.3c0-0.3,0-0.5,0-0.6c0-0.1-0.1-0.2-0.1-0.3
		c0-0.1-0.1-0.1-0.2-0.2c-0.1,0-0.2-0.1-0.4-0.1v-0.3H222.7L222.7,14.6z"/>
        <path class="st8" d="M226.4,15.2v3.6h0.7c0.4,0,0.6,0,0.9-0.1c0.2-0.1,0.4-0.1,0.6-0.3c0.2-0.1,0.3-0.3,0.4-0.6
		c0.1-0.3,0.2-0.6,0.2-0.9c0-0.4-0.1-0.7-0.2-1c-0.1-0.3-0.3-0.5-0.6-0.6c-0.3-0.1-0.6-0.2-1.1-0.2
		C226.9,15.2,226.6,15.2,226.4,15.2L226.4,15.2z M226.4,19.3v2.1c0,0.3,0,0.5,0,0.6c0,0.1,0.1,0.2,0.1,0.3c0,0.1,0.1,0.1,0.2,0.2
		s0.2,0.1,0.4,0.1v0.3h-2.6v-0.3c0.3-0.1,0.4-0.1,0.5-0.2c0.1-0.1,0.1-0.2,0.2-0.3c0-0.1,0-0.4,0-0.7v-5.3c0-0.3,0-0.5,0-0.6
		c0-0.1-0.1-0.2-0.1-0.3c0-0.1-0.1-0.1-0.2-0.2c-0.1,0-0.2-0.1-0.4-0.1v-0.3h3c0.9,0,1.7,0.2,2.1,0.5c0.5,0.3,0.7,0.9,0.7,1.6
		c0,0.6-0.2,1-0.5,1.4c-0.3,0.4-0.8,0.7-1.4,0.9v0c0.2,0.1,0.5,0.2,0.6,0.4c0.2,0.2,0.4,0.5,0.6,0.9l0.5,1c0.2,0.3,0.3,0.5,0.4,0.7
		c0.1,0.2,0.2,0.3,0.3,0.4c0.1,0.1,0.3,0.1,0.5,0.2v0.3h-1.7c-0.2-0.2-0.3-0.4-0.4-0.7c-0.1-0.2-0.3-0.5-0.4-0.8l-0.5-1
		c-0.2-0.3-0.3-0.5-0.4-0.7c-0.1-0.1-0.2-0.2-0.3-0.3c-0.1-0.1-0.2-0.1-0.3-0.1c-0.1,0-0.2,0-0.4,0H226.4L226.4,19.3z"/>
        <path class="st8" d="M238.3,14.6v1.8h-0.6c-0.1-0.2-0.1-0.4-0.2-0.5c-0.1-0.2-0.1-0.3-0.2-0.4c-0.1-0.1-0.1-0.2-0.2-0.2
		c-0.1-0.1-0.2-0.1-0.3-0.1c-0.1,0-0.2,0-0.4,0h-1.9v3.2h1.3c0.2,0,0.3,0,0.4-0.1c0.1-0.1,0.2-0.1,0.3-0.3c0.1-0.1,0.1-0.3,0.2-0.6
		h0.6v2.3h-0.6c-0.1-0.2-0.1-0.4-0.2-0.6c-0.1-0.1-0.2-0.2-0.2-0.3c-0.1-0.1-0.2-0.1-0.4-0.1h-1.3v3.5h1.9c0.2,0,0.4,0,0.5-0.1
		c0.1,0,0.2-0.1,0.3-0.2c0.1-0.1,0.2-0.2,0.2-0.3c0.1-0.1,0.1-0.3,0.2-0.4c0-0.1,0.1-0.4,0.2-0.6h0.6l-0.1,2.1h-5.6v-0.3
		c0.3-0.1,0.4-0.1,0.5-0.2c0.1-0.1,0.1-0.2,0.2-0.3c0-0.1,0-0.4,0-0.7v-5.3c0-0.3,0-0.5,0-0.6c0-0.1-0.1-0.2-0.1-0.3
		c0-0.1-0.1-0.1-0.2-0.2c-0.1,0-0.2-0.1-0.4-0.1v-0.3H238.3L238.3,14.6z"/>
        <path class="st8" d="M241.9,21.4c0,0.3,0,0.5,0,0.6c0,0.1,0,0.2,0.1,0.3c0,0.1,0.1,0.1,0.2,0.2c0.1,0,0.2,0.1,0.4,0.1v0.3h-2.6
		v-0.3c0.3-0.1,0.4-0.1,0.5-0.2c0.1-0.1,0.1-0.2,0.2-0.3c0-0.1,0-0.4,0-0.7v-5.3c0-0.3,0-0.5,0-0.6c0-0.1-0.1-0.2-0.1-0.3
		c0-0.1-0.1-0.1-0.2-0.2c-0.1,0-0.2-0.1-0.4-0.1v-0.3h2.6v0.3c-0.2,0-0.3,0.1-0.4,0.1c-0.1,0-0.1,0.1-0.2,0.2c0,0.1-0.1,0.2-0.1,0.3
		c0,0.1,0,0.3,0,0.6V21.4L241.9,21.4z"/>
        <path class="st8" d="M249.3,19.6c0.1,0.2,0.3,0.5,0.4,0.6c0.1,0.2,0.2,0.4,0.3,0.6h0.1c0-0.2,0-0.7-0.1-1.5c0-0.7,0-1.4,0-2v-1.3
		c0-0.3,0-0.5,0-0.6c0-0.1,0-0.2-0.1-0.3c0-0.1-0.1-0.1-0.2-0.2c-0.1,0-0.2-0.1-0.4-0.1v-0.3h2.2v0.3c-0.2,0-0.3,0.1-0.4,0.1
		c-0.1,0-0.1,0.1-0.2,0.2c0,0.1-0.1,0.2-0.1,0.3c0,0.1,0,0.3,0,0.6V23H250l-3.4-5.7c-0.2-0.4-0.4-0.6-0.5-0.8
		c-0.1-0.2-0.2-0.3-0.2-0.5h-0.1c0,0.3,0,0.9,0.1,1.7c0,0.8,0,1.6,0,2.4v1.2c0,0.3,0,0.5,0,0.6c0,0.1,0,0.2,0.1,0.3
		c0,0.1,0.1,0.1,0.2,0.2c0.1,0,0.2,0.1,0.4,0.1v0.3h-2.2v-0.3c0.3-0.1,0.4-0.1,0.5-0.2c0.1-0.1,0.1-0.2,0.2-0.3c0-0.1,0-0.4,0-0.7
		v-5.3c0-0.3,0-0.5,0-0.6c0-0.1-0.1-0.2-0.1-0.3c0-0.1-0.1-0.1-0.2-0.2c-0.1,0-0.2-0.1-0.4-0.1v-0.3h1.9L249.3,19.6L249.3,19.6z"/>
        <path class="st8" d="M129,36.4c0,0.3,0,0.5,0,0.6c0,0.1,0,0.2,0.1,0.3c0,0.1,0.1,0.1,0.2,0.2c0.1,0,0.2,0.1,0.4,0.1v0.3h-2.6v-0.3
		c0.3-0.1,0.4-0.1,0.5-0.2c0.1-0.1,0.1-0.2,0.2-0.3c0-0.1,0-0.4,0-0.7v-5.3c0-0.3,0-0.5,0-0.6c0-0.1-0.1-0.2-0.1-0.3
		c0-0.1-0.1-0.1-0.2-0.2c-0.1,0-0.2-0.1-0.4-0.1v-0.3h2.6v0.3c-0.2,0-0.3,0.1-0.4,0.1c-0.1,0-0.1,0.1-0.2,0.2c0,0.1-0.1,0.2-0.1,0.3
		c0,0.1,0,0.3,0,0.6V36.4L129,36.4z"/>
        <path class="st8" d="M133.3,37.3h1.6c0.2,0,0.3,0,0.4,0c0.1,0,0.2-0.1,0.3-0.1c0.1,0,0.2-0.1,0.2-0.2c0.1-0.1,0.1-0.2,0.2-0.3
		c0.1-0.1,0.1-0.3,0.2-0.5c0.1-0.2,0.1-0.5,0.2-0.8h0.6l-0.1,2.4h-5.5v-0.3c0.3-0.1,0.4-0.1,0.5-0.2c0.1-0.1,0.1-0.2,0.2-0.3
		c0-0.1,0-0.4,0-0.7v-5.3c0-0.3,0-0.5,0-0.6c0-0.1-0.1-0.2-0.1-0.3c0-0.1-0.1-0.1-0.2-0.2c-0.1,0-0.2-0.1-0.4-0.1v-0.3h2.6v0.3
		c-0.2,0-0.3,0.1-0.4,0.1c-0.1,0-0.1,0.1-0.2,0.2c0,0.1-0.1,0.2-0.1,0.3c0,0.1,0,0.3,0,0.6V37.3L133.3,37.3z"/>
        <path class="st8" d="M140,37.3h1.6c0.2,0,0.3,0,0.4,0c0.1,0,0.2-0.1,0.3-0.1s0.2-0.1,0.2-0.2c0.1-0.1,0.1-0.2,0.2-0.3
		c0.1-0.1,0.1-0.3,0.2-0.5c0.1-0.2,0.1-0.5,0.2-0.8h0.6l-0.1,2.4h-5.5v-0.3c0.3-0.1,0.4-0.1,0.5-0.2c0.1-0.1,0.1-0.2,0.2-0.3
		c0-0.1,0-0.4,0-0.7v-5.3c0-0.3,0-0.5,0-0.6c0-0.1-0.1-0.2-0.1-0.3c0-0.1-0.1-0.1-0.2-0.2c-0.1,0-0.2-0.1-0.4-0.1v-0.3h2.6v0.3
		c-0.2,0-0.3,0.1-0.4,0.1c-0.1,0-0.1,0.1-0.2,0.2c0,0.1-0.1,0.2-0.1,0.3c0,0.1,0,0.3,0,0.6V37.3L140,37.3z"/>
        <path class="st8" d="M146.7,36.4c0,0.3,0,0.5,0,0.6c0,0.1,0,0.2,0.1,0.3c0,0.1,0.1,0.1,0.2,0.2c0.1,0,0.2,0.1,0.4,0.1v0.3h-2.6
		v-0.3c0.3-0.1,0.4-0.1,0.5-0.2c0.1-0.1,0.1-0.2,0.2-0.3c0-0.1,0-0.4,0-0.7v-5.3c0-0.3,0-0.5,0-0.6c0-0.1-0.1-0.2-0.1-0.3
		c0-0.1-0.1-0.1-0.2-0.2c-0.1,0-0.2-0.1-0.4-0.1v-0.3h2.6v0.3c-0.2,0-0.3,0.1-0.4,0.1c-0.1,0-0.1,0.1-0.2,0.2c0,0.1-0.1,0.2-0.1,0.3
		c0,0.1,0,0.3,0,0.6V36.4L146.7,36.4z"/>
        <path class="st8" d="M153.8,34.6c0.1,0.2,0.3,0.5,0.4,0.6c0.1,0.2,0.2,0.4,0.3,0.6h0.1c0-0.2,0-0.7-0.1-1.5c0-0.7,0-1.4,0-2v-1.3
		c0-0.3,0-0.5,0-0.6c0-0.1,0-0.2-0.1-0.3c0-0.1-0.1-0.1-0.2-0.2s-0.2-0.1-0.4-0.1v-0.3h2.2v0.3c-0.2,0-0.3,0.1-0.4,0.1
		c-0.1,0-0.1,0.1-0.2,0.2c0,0.1-0.1,0.2-0.1,0.3c0,0.1,0,0.3,0,0.6v6.8h-0.8l-3.4-5.7c-0.2-0.4-0.4-0.6-0.5-0.8
		c-0.1-0.2-0.2-0.3-0.2-0.5h-0.1c0,0.3,0,0.9,0.1,1.7c0,0.8,0,1.6,0,2.4v1.2c0,0.3,0,0.5,0,0.6c0,0.1,0,0.2,0.1,0.3
		c0,0.1,0.1,0.1,0.2,0.2s0.2,0.1,0.4,0.1v0.3h-2.2v-0.3c0.3-0.1,0.4-0.1,0.5-0.2c0.1-0.1,0.1-0.2,0.2-0.3c0-0.1,0-0.4,0-0.7v-5.3
		c0-0.3,0-0.5,0-0.6c0-0.1-0.1-0.2-0.1-0.3c0-0.1-0.1-0.1-0.2-0.2c-0.1,0-0.2-0.1-0.4-0.1v-0.3h1.9L153.8,34.6L153.8,34.6z"/>
        <path class="st8" d="M163.5,37.9l-0.5,0.1l-0.4-0.5c-0.3,0.2-0.5,0.3-0.8,0.4c-0.3,0.1-0.6,0.1-1,0.1c-1,0-1.8-0.4-2.3-1.1
		c-0.5-0.7-0.8-1.8-0.8-3.1c0-0.9,0.1-1.6,0.4-2.3c0.3-0.7,0.7-1.2,1.2-1.5c0.5-0.4,1.2-0.5,1.9-0.5c0.4,0,0.7,0,1.1,0.1
		c0.3,0,0.7,0.1,1.2,0.2v1.7h-0.6c-0.1-0.4-0.2-0.7-0.4-0.9c-0.2-0.2-0.3-0.4-0.5-0.4c-0.2-0.1-0.5-0.1-0.8-0.1
		c-0.4,0-0.8,0.1-1.2,0.4c-0.3,0.3-0.6,0.7-0.8,1.3c-0.2,0.6-0.3,1.2-0.3,2c0,0.8,0.1,1.5,0.2,2c0.2,0.6,0.4,1,0.7,1.3
		c0.3,0.3,0.7,0.4,1.1,0.4c0.5,0,0.8-0.1,1.1-0.3c0.2-0.2,0.3-0.5,0.3-1v-0.4c0-0.4,0-0.6-0.1-0.8c0-0.2-0.1-0.3-0.2-0.4
		c-0.1-0.1-0.3-0.2-0.5-0.2v-0.3h2.5v0.3c-0.1,0-0.3,0.1-0.3,0.2c-0.1,0.1-0.1,0.1-0.2,0.2c0,0.1-0.1,0.2-0.1,0.3c0,0.1,0,0.3,0,0.6
		V37.9L163.5,37.9z"/>
        <path class="st8" d="M171.3,29.6v1.8h-0.6c-0.1-0.2-0.1-0.4-0.2-0.5c-0.1-0.2-0.1-0.3-0.2-0.4c-0.1-0.1-0.1-0.2-0.2-0.2
		c-0.1-0.1-0.2-0.1-0.3-0.1c-0.1,0-0.2,0-0.4,0h-1.9v3.2h1.3c0.2,0,0.3,0,0.4-0.1c0.1-0.1,0.2-0.1,0.3-0.3c0.1-0.1,0.1-0.3,0.2-0.6
		h0.6v2.3h-0.6c-0.1-0.2-0.1-0.4-0.2-0.6c-0.1-0.1-0.2-0.2-0.2-0.3c-0.1-0.1-0.2-0.1-0.4-0.1h-1.3v3.5h1.9c0.2,0,0.4,0,0.5-0.1
		c0.1,0,0.2-0.1,0.3-0.2c0.1-0.1,0.2-0.2,0.2-0.3c0.1-0.1,0.1-0.3,0.2-0.4c0-0.1,0.1-0.4,0.2-0.6h0.6l-0.1,2.1h-5.6v-0.3
		c0.3-0.1,0.4-0.1,0.5-0.2c0.1-0.1,0.1-0.2,0.2-0.3c0-0.1,0-0.4,0-0.7v-5.3c0-0.3,0-0.5,0-0.6c0-0.1-0.1-0.2-0.1-0.3
		c0-0.1-0.1-0.1-0.2-0.2c-0.1,0-0.2-0.1-0.4-0.1v-0.3H171.3L171.3,29.6z"/>
        <path class="st8" d="M178,34.6c0.1,0.2,0.3,0.5,0.4,0.6c0.1,0.2,0.2,0.4,0.3,0.6h0.1c0-0.2,0-0.7-0.1-1.5c0-0.7,0-1.4,0-2v-1.3
		c0-0.3,0-0.5,0-0.6c0-0.1,0-0.2-0.1-0.3c0-0.1-0.1-0.1-0.2-0.2s-0.2-0.1-0.4-0.1v-0.3h2.2v0.3c-0.2,0-0.3,0.1-0.4,0.1
		c-0.1,0-0.1,0.1-0.2,0.2c0,0.1-0.1,0.2-0.1,0.3c0,0.1,0,0.3,0,0.6v6.8h-0.8l-3.4-5.7c-0.2-0.4-0.4-0.6-0.5-0.8
		c-0.1-0.2-0.2-0.3-0.2-0.5h-0.1c0,0.3,0,0.9,0.1,1.7c0,0.8,0,1.6,0,2.4v1.2c0,0.3,0,0.5,0,0.6c0,0.1,0,0.2,0.1,0.3
		c0,0.1,0.1,0.1,0.2,0.2c0.1,0,0.2,0.1,0.4,0.1v0.3h-2.2v-0.3c0.3-0.1,0.4-0.1,0.5-0.2c0.1-0.1,0.1-0.2,0.2-0.3c0-0.1,0-0.4,0-0.7
		v-5.3c0-0.3,0-0.5,0-0.6c0-0.1-0.1-0.2-0.1-0.3c0-0.1-0.1-0.1-0.2-0.2c-0.1,0-0.2-0.1-0.4-0.1v-0.3h1.9L178,34.6L178,34.6z"/>
        <path class="st8" d="M190.7,29.6v1.8h-0.6c-0.1-0.2-0.1-0.4-0.2-0.5c-0.1-0.2-0.1-0.3-0.2-0.4c-0.1-0.1-0.1-0.2-0.2-0.2
		c-0.1-0.1-0.2-0.1-0.3-0.1c-0.1,0-0.2,0-0.4,0h-1.9v3.2h1.3c0.2,0,0.3,0,0.4-0.1c0.1-0.1,0.2-0.1,0.3-0.3c0.1-0.1,0.1-0.3,0.2-0.6
		h0.6v2.3H189c-0.1-0.2-0.1-0.4-0.2-0.6c-0.1-0.1-0.2-0.2-0.2-0.3c-0.1-0.1-0.2-0.1-0.4-0.1h-1.3v3.5h1.9c0.2,0,0.4,0,0.5-0.1
		c0.1,0,0.2-0.1,0.3-0.2c0.1-0.1,0.2-0.2,0.2-0.3c0.1-0.1,0.1-0.3,0.2-0.4c0-0.1,0.1-0.4,0.2-0.6h0.6l-0.1,2.1H185v-0.3
		c0.3-0.1,0.4-0.1,0.5-0.2c0.1-0.1,0.1-0.2,0.2-0.3c0-0.1,0-0.4,0-0.7v-5.3c0-0.3,0-0.5,0-0.6c0-0.1-0.1-0.2-0.1-0.3
		c0-0.1-0.1-0.1-0.2-0.2c-0.1,0-0.2-0.1-0.4-0.1v-0.3H190.7L190.7,29.6z"/>
        <polygon class="st8" points="193.6,36.5 193.6,37.9 192.4,37.9 192.4,36.5 193.6,36.5 	"/>
        <path class="st8" d="M196.5,29.6v0.3c-0.2,0-0.3,0.1-0.4,0.1c-0.1,0-0.2,0.1-0.2,0.2c0,0.1-0.1,0.2-0.1,0.4c0,0.1,0,0.3,0,0.4
		c0,0.2,0.1,0.3,0.1,0.5l1.4,5l1.7-5c0-0.1,0-0.2,0.1-0.2c0-0.1,0-0.2,0.1-0.2c0-0.1,0-0.2,0-0.2c0-0.1,0-0.1,0-0.2
		c0-0.2-0.1-0.4-0.2-0.5c-0.1-0.1-0.3-0.2-0.6-0.2v-0.3h2.6v0.3c-0.2,0-0.3,0.1-0.4,0.2c-0.1,0.1-0.2,0.2-0.3,0.4
		c-0.1,0.2-0.2,0.4-0.4,0.8l-2.5,6.7h-0.8l-2.1-6.8c-0.1-0.4-0.2-0.6-0.3-0.8c-0.1-0.2-0.2-0.3-0.3-0.4c-0.1-0.1-0.2-0.1-0.4-0.2
		v-0.3H196.5L196.5,29.6z"/>
        <polygon class="st8" points="202.1,36.5 202.1,37.9 200.9,37.9 200.9,36.5 202.1,36.5 	"/>
</g>
</svg>
