<?xml version="1.0" encoding="utf-8"?>
<!-- Generator: Adobe Illustrator 25.1.0, SVG Export Plug-In . SVG Version: 6.00 Build 0)  -->
<svg xmlns:xlink="http://www.w3.org/1999/xlink" version="1.1" xmlns="http://www.w3.org/2000/svg" x="0px" y="0px"
     viewBox="0 0 328.8 51" style="enable-background:new 0 0 328.8 51;" xml:space="preserve">
<style type="text/css">
	.st0{fill:#E60064;}
	.st1{fill:#1D1D1B;}
	.st2{clip-path:url(#SVGID_2_);}
	.st3{clip-path:url(#SVGID_4_);}
	.st4{fill:#FFFFFF;}
</style>
    <g id="Ebene_1">
</g>
    <g id="Techro">
	<g id="TEC-HRO">
		<polygon class="st0" points="253.4,50.5 74.6,50.5 74.6,41 253.4,41 253.4,50.5 		"/>
        <path class="st1" d="M77.8,27.3h-1.3v1.5h1.3c0.7,0,1.3,0.3,1.3,0.7v1.3c0,0.5-0.9,1-2,1c-1.1,0-2-0.4-2-1v-0.4h1.3v0.6h1.3v-1.5
			h-1.3c-0.7,0-1.3-0.3-1.3-0.7v-1.3c0-0.5,0.9-1,2-1c1.1,0,2,0.4,2,1V28h-1.3L77.8,27.3L77.8,27.3z"/>
        <path class="st1" d="M85.7,25.4H87v1.3h1.3c0.7,0,1.3,0.3,1.3,0.7v4.4h-1.3v-4.4H87v4.4h-1.3V25.4z"/>
        <path class="st1" d="M96.4,30.8c0,0.5,0.9,1,2,1c1.1,0,2-0.4,2-1v-3.2c0-0.5-0.9-1-2-1s-2,0.4-2,1C96.4,27.6,96.4,30.8,96.4,30.8z
			 M97.7,27.3h1.3v3.7h-1.3V27.3z"/>
        <path class="st1" d="M107.1,30.8c0,0.5,0.9,1,2,1s2-0.4,2-1v-3.2c0-0.5-0.9-1-2-1c-1.1,0-2,0.4-2,1
			C107.1,27.6,107.1,30.8,107.1,30.8z M108.5,27.3h1.3v3.7h-1.3V27.3z"/>
        <path class="st1"
              d="M120.5,27.3h-1.3v4.5c-0.3,0-0.6-0.1-0.9-0.2c-0.3-0.1-0.4-0.3-0.4-0.5v-5.7h1.3v1.3h1.3V27.3z"/>
        <path class="st1" d="M127.9,26.1h-1.3v-0.7h1.3V26.1z M127.9,31.8c-0.3,0-0.6-0.1-0.9-0.2c-0.3-0.1-0.4-0.3-0.4-0.5v-4.5h1.3
			C127.9,26.7,127.9,31.8,127.9,31.8z"/>
        <path class="st1" d="M134.7,26.7h2.7c0.7,0,1.3,0.3,1.3,0.7v4.4h-1.3v-4.4H136v4.4h-1.3L134.7,26.7L134.7,26.7z"/>
        <path class="st1" d="M145.7,33h2.4c0.7,0,1.3-0.3,1.3-0.7v-4.8c0-0.5-0.9-1-2-1s-2,0.4-2,1v3.5c0,0.4,0.6,0.7,1.3,0.7h1.3v0.6
			h-2.4V33z M146.8,27.3h1.3v3.7h-1.3V27.3z"/>
        <path class="st1" d="M164.2,30.8c0,0.5,0.9,1,2,1c1.1,0,2-0.4,2-1v-0.4h-1.3v0.6h-1.3v-1.5h2.7v-1.9c0-0.5-0.9-1-2-1
			c-1.1,0-2,0.4-2,1L164.2,30.8L164.2,30.8z M165.6,27.3h1.3v1.5h-1.3V27.3z"/>
        <path class="st1" d="M179,26.7h-2.7c-0.7,0-1.3,0.3-1.3,0.7v3.7c0,0.4,0.6,0.7,1.3,0.7h1.3V33h1.3V26.7z M177.6,31.1h-1.3v-3.7
			h1.3V31.1z"/>
        <path class="st1" d="M185.7,26.7h1.3v4.4h1.3v-4.4h1.3v4.4c0,0.4-0.6,0.7-1.3,0.7h-2.7L185.7,26.7L185.7,26.7z"/>
        <path class="st1" d="M197.8,26.1h-1.3v-0.7h1.3V26.1z M197.8,31.8c-0.3,0-0.6-0.1-0.9-0.2c-0.3-0.1-0.4-0.3-0.4-0.5v-4.5h1.3
			C197.8,26.7,197.8,31.8,197.8,31.8z"/>
        <path class="st1" d="M204.5,33h1.3v-1.2h1.3c0.7,0,1.3-0.3,1.3-0.7v-3.7c0-0.4-0.6-0.7-1.3-0.7h-2.7L204.5,33L204.5,33z
			 M205.9,27.3h1.3v3.7h-1.3L205.9,27.3L205.9,27.3z"/>
        <path class="st1"
              d="M215.3,26.7h5.3c0.7,0,1.3,0.3,1.3,0.7v4.4h-1.3v-4.4h-1.3v4.4h-1.3v-4.4h-1.3v4.4h-1.3V26.7L215.3,26.7z"/>
        <path class="st1" d="M228.7,30.8c0,0.5,0.9,1,2,1c1.1,0,2-0.4,2-1v-0.4h-1.3v0.6H230v-1.5h2.7v-1.9c0-0.5-0.9-1-2-1s-2,0.4-2,1
			L228.7,30.8L228.7,30.8z M230,27.3h1.3v1.5H230V27.3z"/>
        <path class="st1" d="M239.4,26.7h2.7c0.7,0,1.3,0.3,1.3,0.7v4.4h-1.3v-4.4h-1.3v4.4h-1.3V26.7L239.4,26.7z"/>
        <path class="st1"
              d="M252.8,27.3h-1.3v4.5c-0.3,0-0.6-0.1-0.9-0.2c-0.3-0.1-0.4-0.3-0.4-0.5v-5.7h1.3v1.3h1.3V27.3z"/>
        <g>
			<defs>
				<rect id="SVGID_1_" x="73.7" y="0.9" width="180.2" height="49.7"/>
			</defs>
            <clipPath id="SVGID_2_">
				<use xlink:href="#SVGID_1_" style="overflow:visible;"/>
			</clipPath>
            <g class="st2">
				<polygon class="st0" points="81.9,7.1 77.6,18.5 86.3,18.5 90.5,7.1 81.9,7.1 				"/>
                <polygon class="st0" points="75.8,0.9 73.7,5.2 98.7,5.2 100.8,0.9 75.8,0.9 				"/>
                <polygon class="st0" points="101.9,7.1 97.6,18.5 120.2,18.5 122,13.9 109.6,13.9 110.5,11.6 122.8,11.6 124.5,7.1 101.9,7.1
									"/>
                <polygon class="st0" points="104.6,0.9 102.8,5.2 125.4,5.2 127.1,0.9 104.6,0.9 				"/>
			</g>
		</g>
        <path class="st0" d="M129.7,5.2h22.9l1.7-4.4h-18.1C136.3,0.9,131.7,1.1,129.7,5.2z"/>
        <path class="st0" d="M128.8,7.2h9.3l-2,4.7c0,0-1,1.9,1.2,1.9h11.8l-2,4.8h-13.4c0,0-7.1-0.2-7.1-4.5
			C126.6,12,128.8,7.2,128.8,7.2L128.8,7.2z"/>
        <polygon class="st0" points="157.1,5.1 156.3,7.4 163.1,7.4 165.5,6.3 164.1,5.1 157.1,5.1 		"/>
        <polygon class="st0" points="168.4,7.2 164,18.5 172.8,18.5 175.6,11.6 182.3,11.6 179.5,18.5 188.4,18.5 192.6,7.1 168.4,7.2
			"/>
        <polygon class="st0" points="171.1,0.9 169.4,5.2 178.1,5.2 179.8,0.9 171.1,0.9 		"/>
        <polygon class="st0" points="186.5,0.9 184.8,5.2 193.7,5.2 195.4,0.9 186.5,0.9 		"/>
        <path class="st0"
              d="M198,7.1l-4.6,11.4h8.9l2.8-6.9h8.8l-2.8,6.9h9l1.7-4.1c0,0,1-2.3-0.6-3.7c0,0,3.5-0.8,4.1-3.6L198,7.1z"/>
        <g>
			<defs>
				<rect id="SVGID_3_" x="73.7" y="0.9" width="180.2" height="49.7"/>
			</defs>
            <clipPath id="SVGID_4_">
				<use xlink:href="#SVGID_3_" style="overflow:visible;"/>
			</clipPath>
            <g class="st3">
				<path class="st0" d="M200.4,0.9l-1.7,4.3h27.1c0,0,0.6-4.3-3.7-4.3H200.4L200.4,0.9z"/>
                <path class="st0"
                      d="M229.2,5.2h24.6c0,0,0.8-4.3-3.9-4.3l-14,0C235.9,0.9,230.6,1.3,229.2,5.2L229.2,5.2z"/>
			</g>
		</g>
        <path class="st0" d="M228.3,7.1l8.9,0l-2.1,5.8c0,0-0.9,1.5,0.6,1.5h5.2c0,0,0.9,0.1,1.4-1.2c0.6-1.3,2.3-6.1,2.3-6.1h8.9l-2,5.3
			c0,0-2.6,6.2-11.1,6.2h-6.6c0,0-7.8,0.4-7.8-4.7c0.1-0.7,0.3-1.4,0.5-2.1C226.9,10.7,228.3,7.1,228.3,7.1L228.3,7.1z"/>
        <path class="st4"
              d="M138,47.6c0,0.3-0.5,0.6-1.1,0.6h-4.6v-4.3h1.1v3.8h1.1v-3.8h1.1v3.8h1.1v-3.8h1.1L138,47.6L138,47.6z"/>
        <path class="st4"
              d="M145,47.6c0,0.3-0.5,0.6-1.1,0.6h-4.6v-4.3h1.1v3.8h1.1v-3.8h1.1v3.8h1.1v-3.8h1.1L145,47.6L145,47.6z"/>
        <path class="st4"
              d="M152,47.6c0,0.3-0.5,0.6-1.1,0.6h-4.6v-4.3h1.1v3.8h1.1v-3.8h1.1v3.8h1.1v-3.8h1.1L152,47.6L152,47.6z"/>
        <polygon class="st4" points="153.3,47.6 154.4,47.6 154.4,48.1 153.3,48.1 153.3,47.6 		"/>
        <path class="st4"
              d="M158,44.4h-1.1v3.8c-0.3,0-0.5-0.1-0.8-0.2c-0.2-0.1-0.3-0.2-0.3-0.4v-4.9h1.1v1.1h1.1V44.4L158,44.4z"/>
        <path class="st4" d="M158.7,47.3c0,0.5,0.8,0.8,1.7,0.8c0.9,0,1.7-0.4,1.7-0.8V47H161v0.6h-1.1v-1.3h2.3v-1.6
			c0-0.5-0.8-0.8-1.7-0.8s-1.7,0.4-1.7,0.8V47.3z M159.9,44.4h1.1v1.3h-1.1V44.4z"/>
        <path class="st4" d="M166.8,47.3c0,0.5-0.8,0.8-1.7,0.8c-0.9,0-1.7-0.4-1.7-0.8v-2.7c0-0.5,0.8-0.8,1.7-0.8s1.7,0.4,1.7,0.8v0.3
			h-1.1v-0.6h-1.1v3.2h1.1V47h1.1V47.3z"/>
        <polygon class="st4" points="168.3,45.2 171.4,45.2 171.4,45.7 168.3,45.7 168.3,45.2 		"/>
        <path class="st4" d="M172.8,42.7h1.1v1.1h1.1c0.6,0,1.1,0.2,1.1,0.6v3.7h-1.1v-3.8H174v3.8h-1.1V42.7z"/>
        <path class="st4" d="M177.6,44.4c0-0.3,0.5-0.6,1.1-0.6h1.1v0.6h-1.1v3.8h-1.1V44.4z"/>
        <path class="st4" d="M180.8,47.3c0,0.5,0.8,0.8,1.7,0.8s1.7-0.4,1.7-0.8v-2.7c0-0.5-0.8-0.8-1.7-0.8c-0.9,0-1.7,0.4-1.7,0.8V47.3z
			 M182,44.4h1.1v3.2H182V44.4z"/>
        <polygon class="st4" points="185.6,47.6 186.7,47.6 186.7,48.1 185.6,48.1 185.6,47.6 		"/>
        <path class="st4" d="M191.4,42.7h-1.1v1.1h-1.1c-0.6,0-1.1,0.2-1.1,0.6v3.2c0,0.3,0.5,0.6,1.1,0.6h2.3L191.4,42.7L191.4,42.7z
			 M189.1,44.4h1.1v3.2h-1.1V44.4z"/>
        <path class="st4" d="M192.7,47.3c0,0.5,0.8,0.8,1.7,0.8c0.9,0,1.7-0.4,1.7-0.8V47H195v0.6h-1.2v-1.3h2.3v-1.6
			c0-0.5-0.8-0.8-1.7-0.8s-1.7,0.4-1.7,0.8L192.7,47.3L192.7,47.3z M193.9,44.4h1.1v1.3h-1.2L193.9,44.4L193.9,44.4z"/>
	</g>
</g>
</svg>
